<svg width="24" height="24" viewBox="0 0 24 24" fill="none" xmlns="http://www.w3.org/2000/svg">
<path d="M12.75 7.5V11.5725L16.1325 13.605C16.2738 13.6888 16.3837 13.8168 16.4452 13.9691C16.5067 14.1215 16.5165 14.2899 16.4731 14.4483C16.4296 14.6068 16.3353 14.7466 16.2047 14.8463C16.0741 14.9459 15.9143 15 15.75 15C15.6154 15 15.4833 14.9637 15.3675 14.895L11.6175 12.645C11.5055 12.5786 11.4128 12.4842 11.3484 12.3712C11.2839 12.2581 11.25 12.1302 11.25 12V7.5C11.25 7.30109 11.329 7.11032 11.4697 6.96967C11.6103 6.82902 11.8011 6.75 12 6.75C12.1989 6.75 12.3897 6.82902 12.5303 6.96967C12.671 7.11032 12.75 7.30109 12.75 7.5ZM12 1.5C10.6005 1.4999 9.21526 1.78138 7.92678 2.32769C6.6383 2.87401 5.47292 3.67398 4.5 4.68V2.25C4.5 2.05109 4.42098 1.86032 4.28033 1.71967C4.13968 1.57902 3.94891 1.5 3.75 1.5C3.55109 1.5 3.36032 1.57902 3.21967 1.71967C3.07902 1.86032 3 2.05109 3 2.25V6.75C2.9974 6.92867 3.05868 7.1024 3.17281 7.23991C3.28694 7.37741 3.4464 7.46964 3.6225 7.5H3.69H3.75H8.25C8.44891 7.5 8.63968 7.42098 8.78033 7.28033C8.92098 7.13968 9 6.94891 9 6.75C9 6.55109 8.92098 6.36032 8.78033 6.21967C8.63968 6.07902 8.44891 6 8.25 6H5.31C6.71702 4.43647 8.62724 3.41515 10.7089 3.1134C12.7905 2.81166 14.9121 3.24856 16.7052 4.34823C18.4983 5.4479 19.8495 7.14086 20.5243 9.1331C21.1991 11.1253 21.1547 13.291 20.399 15.2539C19.6433 17.2169 18.2239 18.8531 16.3873 19.8785C14.5507 20.9039 12.4131 21.2536 10.3455 20.8669C8.27793 20.4803 6.41111 19.3816 5.06925 17.7618C3.72739 16.142 2.99525 14.1034 3 12C3 11.8011 2.92098 11.6103 2.78033 11.4697C2.63968 11.329 2.44891 11.25 2.25 11.25C2.05109 11.25 1.86032 11.329 1.71967 11.4697C1.57902 11.6103 1.5 11.8011 1.5 12C1.5 14.0767 2.11581 16.1068 3.26957 17.8335C4.42332 19.5602 6.0632 20.906 7.98182 21.7007C9.90045 22.4955 12.0116 22.7034 14.0484 22.2982C16.0852 21.8931 17.9562 20.8931 19.4246 19.4246C20.8931 17.9562 21.8931 16.0852 22.2982 14.0484C22.7034 12.0116 22.4955 9.90045 21.7007 7.98182C20.906 6.0632 19.5602 4.42332 17.8335 3.26957C16.1068 2.11581 14.0767 1.5 12 1.5Z" fill="white"/>
</svg>
