<svg width="24" height="24" viewBox="0 0 24 24" fill="none" xmlns="http://www.w3.org/2000/svg">
<path d="M16.3651 22.5004H7.63514C6.64788 22.5371 5.68604 22.1827 4.9586 21.5143C4.23115 20.8458 3.79688 19.9173 3.75014 18.9304V14.2504C3.75014 14.0515 3.82916 13.8608 3.96981 13.7201C4.11046 13.5795 4.30123 13.5004 4.50014 13.5004C4.69905 13.5004 4.88982 13.5795 5.03047 13.7201C5.17112 13.8608 5.25014 14.0515 5.25014 14.2504V18.9304C5.29623 19.5195 5.57222 20.0668 6.01847 20.4542C6.46472 20.8415 7.04542 21.0377 7.63514 21.0004H16.3651C16.9549 21.0377 17.5356 20.8415 17.9818 20.4542C18.4281 20.0668 18.704 19.5195 18.7501 18.9304V14.2504C18.7501 14.0515 18.8292 13.8608 18.9698 13.7201C19.1105 13.5795 19.3012 13.5004 19.5001 13.5004C19.6991 13.5004 19.8898 13.5795 20.0305 13.7201C20.1711 13.8608 20.2501 14.0515 20.2501 14.2504V18.9304C20.2034 19.9173 19.7691 20.8458 19.0417 21.5143C18.3142 22.1827 17.3524 22.5371 16.3651 22.5004ZM22.2826 12.5329C22.3529 12.4632 22.4087 12.3803 22.4468 12.2889C22.4849 12.1975 22.5045 12.0995 22.5045 12.0004C22.5045 11.9014 22.4849 11.8034 22.4468 11.712C22.4087 11.6206 22.3529 11.5377 22.2826 11.4679L12.5326 1.71794C12.4629 1.64765 12.38 1.59185 12.2886 1.55377C12.1972 1.5157 12.0991 1.49609 12.0001 1.49609C11.9011 1.49609 11.8031 1.5157 11.7117 1.55377C11.6203 1.59185 11.5374 1.64765 11.4676 1.71794L1.71764 11.4679C1.57641 11.6092 1.49707 11.8007 1.49707 12.0004C1.49707 12.2002 1.57641 12.3917 1.71764 12.5329C1.85887 12.6742 2.05041 12.7535 2.25014 12.7535C2.44987 12.7535 2.64141 12.6742 2.78264 12.5329L12.0001 3.30794L21.2176 12.5329C21.2874 12.6032 21.3703 12.659 21.4617 12.6971C21.5531 12.7352 21.6511 12.7548 21.7501 12.7548C21.8491 12.7548 21.9472 12.7352 22.0386 12.6971C22.13 12.659 22.2129 12.6032 22.2826 12.5329Z" fill="#020B09"/>
</svg>
