<svg width="24" height="24" viewBox="0 0 24 24" fill="none" xmlns="http://www.w3.org/2000/svg">
<g clip-path="url(#clip0_749_3254)">
<path d="M15.7169 0.300781H8.28224C3.88068 0.300781 0.299805 3.88166 0.299805 8.28322V15.7179C0.299805 20.1194 3.88068 23.7003 8.28224 23.7003H15.7169C20.1185 23.7003 23.6993 20.1194 23.6993 15.7179V14.6225C23.6993 14.3148 23.4499 14.0654 23.1422 14.0654C22.8345 14.0654 22.5851 14.3149 22.5851 14.6225V15.7179C22.5851 19.505 19.5041 22.586 15.7169 22.586H8.28224C4.49502 22.586 1.41407 19.505 1.41407 15.7179V8.28322C1.41407 4.496 4.49507 1.41505 8.28224 1.41505H15.7169C19.5041 1.41505 22.5851 4.49605 22.5851 8.28322V9.78617C22.5851 10.0939 22.8345 10.3433 23.1422 10.3433C23.4499 10.3433 23.6993 10.0939 23.6993 9.78617V8.28322C23.6993 3.88166 20.1185 0.300781 15.7169 0.300781Z" fill="#020B09" stroke="#020B09" stroke-width="0.5"/>
<path d="M23.1421 11.3047C22.8343 11.3047 22.585 11.5541 22.585 11.8618V12.4024C22.585 12.7101 22.8344 12.9595 23.1421 12.9595C23.4498 12.9595 23.6992 12.7101 23.6992 12.4024V11.8618C23.6992 11.5541 23.4498 11.3047 23.1421 11.3047Z" fill="#020B09" stroke="#020B09" stroke-width="0.5"/>
<path d="M18.7306 10.295C18.738 10.2772 18.7421 10.2587 18.7475 10.2404C18.7524 10.224 18.7588 10.2082 18.7621 10.1911C18.7764 10.1191 18.7764 10.0451 18.7621 9.97306C18.7587 9.95595 18.7524 9.94011 18.7475 9.92361C18.7421 9.90537 18.7379 9.8869 18.7306 9.86923C18.7224 9.84945 18.7112 9.8314 18.7009 9.81284C18.6936 9.79971 18.6879 9.78598 18.6795 9.77337C18.6589 9.74253 18.6355 9.71375 18.6094 9.68764L16.0732 7.15151C15.8556 6.93387 15.5031 6.93387 15.2854 7.15151C15.0678 7.36915 15.0678 7.7217 15.2854 7.93934L16.8711 9.52498H5.78367C5.47594 9.52498 5.22656 9.7744 5.22656 10.0821C5.22656 10.3898 5.47598 10.6392 5.78367 10.6392H18.216C18.2526 10.6392 18.289 10.6354 18.325 10.6282C18.342 10.6249 18.3577 10.6186 18.3741 10.6137C18.3924 10.6083 18.4111 10.604 18.429 10.5966C18.4486 10.5885 18.4665 10.5774 18.4849 10.5672C18.4982 10.5598 18.512 10.554 18.5248 10.5455C18.586 10.5047 18.6386 10.4521 18.6795 10.3908C18.688 10.3781 18.6937 10.3643 18.7011 10.3512C18.7113 10.3326 18.7224 10.3147 18.7306 10.295Z" fill="#020B09" stroke="#020B09" stroke-width="0.5"/>
<path d="M18.7729 13.9184C18.7729 13.6107 18.5234 13.3613 18.2158 13.3613H5.78343C5.74686 13.3613 5.71039 13.3652 5.67439 13.3723C5.65733 13.3757 5.64154 13.382 5.62508 13.3869C5.6068 13.3924 5.58829 13.3965 5.57052 13.4038C5.55079 13.412 5.53283 13.4231 5.51436 13.4334C5.50119 13.4407 5.48736 13.4465 5.47471 13.455C5.41344 13.4959 5.36085 13.5485 5.31997 13.6097C5.31144 13.6225 5.30572 13.6363 5.29836 13.6496C5.28814 13.668 5.27704 13.6858 5.26888 13.7055C5.26147 13.7234 5.25725 13.742 5.25182 13.7604C5.24694 13.7768 5.24066 13.7925 5.23729 13.8095C5.22299 13.8815 5.22299 13.9555 5.23729 14.0275C5.24066 14.0444 5.24694 14.0601 5.25177 14.0764C5.25721 14.0948 5.26143 14.1135 5.26883 14.1314C5.27694 14.151 5.288 14.1688 5.29818 14.1872C5.30558 14.2005 5.31135 14.2144 5.31993 14.2272C5.3405 14.2581 5.36389 14.2869 5.39005 14.313L7.92618 16.8491C8.03497 16.9579 8.17752 17.0123 8.32007 17.0123C8.46261 17.0123 8.60516 16.9579 8.71396 16.8491C8.9316 16.6315 8.9316 16.2789 8.71396 16.0613L7.12832 14.4756H18.2157C18.5234 14.4756 18.7729 14.2262 18.7729 13.9184Z" fill="#020B09" stroke="#020B09" stroke-width="0.5"/>
</g>
<defs>
<clipPath id="clip0_749_3254">
<rect width="24" height="24" fill="white"/>
</clipPath>
</defs>
</svg>
