<svg width="24" height="24" viewBox="0 0 24 24" fill="none" xmlns="http://www.w3.org/2000/svg">
<g clip-path="url(#clip0_703_16163)">
<path d="M21.75 6C21.75 3.92895 20.071 2.25 18 2.25H17.25C16.8358 2.25 16.5 1.91421 16.5 1.5C16.5 1.08579 16.8358 0.75 17.25 0.75H18C20.8995 0.75 23.25 3.10051 23.25 6V6.75C23.25 7.16423 22.9142 7.5 22.5 7.5C22.0858 7.5 21.75 7.16423 21.75 6.75V6Z" fill="#020B09" stroke="#020B09" stroke-width="0.2"/>
<path d="M22.5 16.5C22.9142 16.5 23.25 16.8358 23.25 17.25V18C23.25 20.8995 20.8995 23.25 18 23.25H17.25C16.8358 23.25 16.5 22.9142 16.5 22.5C16.5 22.0858 16.8358 21.75 17.25 21.75H18C20.071 21.75 21.75 20.071 21.75 18V17.25C21.75 16.8358 22.0858 16.5 22.5 16.5Z" fill="#020B09"/>
<path d="M7.5 1.5C7.5 1.91421 7.16423 2.25 6.75 2.25H6C3.92895 2.25 2.25 3.92895 2.25 6V6.75C2.25 7.16423 1.91421 7.5 1.5 7.5C1.08579 7.5 0.75 7.16423 0.75 6.75V6C0.75 3.1005 3.10051 0.75 6 0.75H6.75C7.16423 0.75 7.5 1.08579 7.5 1.5Z" fill="#020B09" stroke="#020B09" stroke-width="0.2"/>
<path d="M7.5 22.5C7.5 22.9142 7.16423 23.25 6.75 23.25H6C3.1005 23.25 0.75 20.8995 0.75 18V17.25C0.75 16.8358 1.08579 16.5 1.5 16.5C1.91421 16.5 2.25 16.8358 2.25 17.25V18C2.25 20.071 3.92895 21.75 6 21.75H6.75C7.16423 21.75 7.5 22.0858 7.5 22.5Z" fill="#020B09" stroke="#020B09" stroke-width="0.2"/>
<path d="M12 6.09961C14.43 6.09961 16.4004 8.06998 16.4004 10.5C16.4004 11.714 15.9085 12.8132 15.1133 13.6094L15.0107 13.7119L15.1426 13.7715C16.8662 14.5509 18.2184 15.9543 18.8467 17.6943C19.0153 18.1618 18.7731 18.6779 18.3057 18.8467C17.8383 19.0154 17.3222 18.773 17.1533 18.3057C16.4507 16.3599 14.4364 14.8994 12 14.8994C9.56357 14.8994 7.54918 16.3599 6.84668 18.3057C6.67779 18.773 6.16173 19.0155 5.69434 18.8467C5.22701 18.6779 4.98474 18.1617 5.15332 17.6943C5.78151 15.9544 7.13388 14.551 8.85742 13.7715L8.98926 13.7119L8.8877 13.6094C8.0924 12.8132 7.60061 11.7141 7.60059 10.5C7.60059 8.07002 9.57004 6.09968 12 6.09961ZM12 7.90039C10.5642 7.90046 9.40039 9.06414 9.40039 10.5C9.40044 11.9358 10.5642 13.0995 12 13.0996C13.4359 13.0996 14.5996 11.9359 14.5996 10.5C14.5996 9.0641 13.4359 7.90039 12 7.90039Z" fill="#020B09" stroke="white" stroke-width="0.2"/>
</g>
<defs>
<clipPath id="clip0_703_16163">
<rect width="24" height="24" fill="white"/>
</clipPath>
</defs>
</svg>
