<svg width="24" height="24" viewBox="0 0 24 24" fill="none" xmlns="http://www.w3.org/2000/svg">
<path fill-rule="evenodd" clip-rule="evenodd" d="M4.62274 1.12891C4.32364 1.1147 4.02851 1.13944 3.74271 1.1992C2.03689 1.53738 0.75 3.0557 0.75 4.87755V16.8732C0.75 18.5325 1.81741 19.94 3.29657 20.4335L7.01051 22.3184C9.43834 23.5505 12.1039 22.6282 13.5021 20.6219H15.5971C17.6471 20.6219 19.3089 18.9436 19.3089 16.8732V15.3738C19.3089 14.9597 18.9765 14.6241 18.5665 14.6241C18.1565 14.6241 17.8241 14.9597 17.8241 15.3738V16.8732C17.8241 18.1154 16.827 19.1225 15.5971 19.1225H14.2341C14.3955 18.6011 14.4835 18.0413 14.4835 17.4532V9.16676C14.4835 7.10738 13.3592 5.21295 11.5636 4.30166L8.26658 2.62837H15.5971C16.827 2.62837 17.8241 3.63537 17.8241 4.87755V6.37703C17.8241 6.7911 18.1565 7.12676 18.5665 7.12676C18.9765 7.12676 19.3089 6.7911 19.3089 6.37703V4.87755C19.3089 2.80724 17.6471 1.12891 15.5971 1.12891H4.62274ZM2.23471 4.99073C2.23471 3.20992 3.98456 2.13334 5.42393 2.86382L10.897 5.64146C12.1727 6.28894 12.9988 7.65326 12.9988 9.16676V17.4532C12.9988 20.3811 10.1025 22.2095 7.67719 20.9785L3.49962 18.8584C2.73574 18.4707 2.23471 17.6495 2.23471 16.7315V4.99073Z" fill="#020B09"/>
<path d="M19.5443 12.5205C19.2137 12.7654 19.1422 13.2346 19.3847 13.5685C19.6271 13.9024 20.0917 13.9746 20.4223 13.7297L22.6429 12.0851C23.4518 11.486 23.4518 10.2659 22.6429 9.66676L20.4223 8.02216C20.0917 7.77728 19.6271 7.84947 19.3847 8.18337C19.1422 8.51727 19.2137 8.98647 19.5443 9.23131L20.7526 10.1262H16.339C15.929 10.1262 15.5967 10.4619 15.5967 10.8759C15.5967 11.29 15.929 11.6256 16.339 11.6256H20.7526L19.5443 12.5205Z" fill="#020B09"/>
</svg>
