<svg width="21" height="21" viewBox="0 0 21 21" fill="none" xmlns="http://www.w3.org/2000/svg">
<path d="M10.5 0C9.46165 0 8.44662 0.307907 7.58326 0.884785C6.7199 1.46166 6.04699 2.2816 5.64963 3.24091C5.25227 4.20022 5.14831 5.25582 5.35088 6.27422C5.55345 7.29262 6.05347 8.22808 6.78769 8.96231C7.52192 9.69654 8.45738 10.1966 9.47578 10.3991C10.4942 10.6017 11.5498 10.4977 12.5091 10.1004C13.4684 9.70301 14.2883 9.0301 14.8652 8.16674C15.4421 7.30339 15.75 6.28835 15.75 5.25C15.75 3.85761 15.1969 2.52226 14.2123 1.53769C13.2277 0.553123 11.8924 0 10.5 0ZM10.5 9C9.75832 9 9.0333 8.78007 8.41661 8.36801C7.79993 7.95596 7.31928 7.37029 7.03545 6.68506C6.75162 5.99984 6.67736 5.24584 6.82206 4.51841C6.96675 3.79098 7.3239 3.1228 7.84835 2.59835C8.3728 2.0739 9.04098 1.71675 9.76841 1.57206C10.4958 1.42736 11.2498 1.50162 11.9351 1.78545C12.6203 2.06928 13.206 2.54993 13.618 3.16661C14.0301 3.7833 14.25 4.50832 14.25 5.25C14.25 5.74246 14.153 6.23009 13.9646 6.68506C13.7761 7.14003 13.4999 7.55343 13.1517 7.90165C12.8034 8.24987 12.39 8.52609 11.9351 8.71455C11.4801 8.903 10.9925 9 10.5 9Z" fill="white"/>
<path d="M14.3775 12H6.6225C4.86671 12.002 3.18341 12.7003 1.94188 13.9419C0.700348 15.1834 0.00198506 16.8667 0 18.6225C0 19.2531 0.250486 19.8578 0.696354 20.3036C1.14222 20.7495 1.74695 21 2.3775 21H18.6225C19.2531 21 19.8578 20.7495 20.3036 20.3036C20.7495 19.8578 21 19.2531 21 18.6225C20.998 16.8667 20.2997 15.1834 19.0581 13.9419C17.8166 12.7003 16.1333 12.002 14.3775 12ZM18.6225 19.5H2.3775C2.14477 19.5 1.92158 19.4075 1.75701 19.243C1.59245 19.0784 1.5 18.8552 1.5 18.6225C1.5 17.2639 2.03969 15.961 3.00035 15.0003C3.961 14.0397 5.26393 13.5 6.6225 13.5H14.3775C15.7361 13.5 17.039 14.0397 17.9997 15.0003C18.9603 15.961 19.5 17.2639 19.5 18.6225C19.5 18.8552 19.4075 19.0784 19.243 19.243C19.0784 19.4075 18.8552 19.5 18.6225 19.5Z" fill="white"/>
</svg>
