<svg width="24" height="24" viewBox="0 0 24 24" fill="none" xmlns="http://www.w3.org/2000/svg">
<path fill-rule="evenodd" clip-rule="evenodd" d="M17.25 6V9.21742C19.4186 9.86284 21 11.8717 21 14.25V18C21 20.8995 18.6495 23.25 15.75 23.25H8.25C5.3505 23.25 3 20.8995 3 18V14.25C3 11.8717 4.58138 9.86284 6.75 9.21742V6C6.75 3.1005 9.1005 0.75 12 0.75C14.8995 0.75 17.25 3.1005 17.25 6ZM15.75 6V9H8.25V6C8.25 3.92895 9.92895 2.25 12 2.25C14.071 2.25 15.75 3.92895 15.75 6ZM4.5 14.25C4.5 12.179 6.17895 10.5 8.25 10.5H15.75C17.821 10.5 19.5 12.179 19.5 14.25V18C19.5 20.0711 17.821 21.75 15.75 21.75H8.25C6.17895 21.75 4.5 20.0711 4.5 18V14.25Z" fill="white"/>
<path d="M14.625 18.75C15.0392 18.75 15.375 18.4142 15.375 18C15.375 17.5858 15.0392 17.25 14.625 17.25H9.375C8.96078 17.25 8.625 17.5858 8.625 18C8.625 18.4142 8.96078 18.75 9.375 18.75H14.625Z" fill="white"/>
</svg>
