<svg width="24" height="24" viewBox="0 0 24 24" fill="none" xmlns="http://www.w3.org/2000/svg">
<g clip-path="url(#clip0_703_16135)">
<path fill-rule="evenodd" clip-rule="evenodd" d="M6.75 0.75C3.43629 0.75 0.75 3.43629 0.75 6.75V17.25C0.75 20.5637 3.43629 23.25 6.75 23.25H17.25C20.5637 23.25 23.25 20.5637 23.25 17.25V6.75C23.25 3.43629 20.5637 0.75 17.25 0.75H6.75ZM2.25 6.75C2.25 4.26472 4.26472 2.25 6.75 2.25H17.25C19.7353 2.25 21.75 4.26472 21.75 6.75V17.25C21.75 19.7353 19.7353 21.75 17.25 21.75H6.75C4.26472 21.75 2.25 19.7353 2.25 17.25V6.75Z" fill="#020B09"/>
<path d="M8.25 7.5C8.25 7.08578 7.91422 6.75 7.5 6.75C7.08578 6.75 6.75 7.08578 6.75 7.5V16.5C6.75 16.9142 7.08578 17.25 7.5 17.25C7.91422 17.25 8.25 16.9142 8.25 16.5V7.5Z" fill="#020B09"/>
<path d="M17.25 8.625C17.25 8.21078 16.9142 7.875 16.5 7.875C16.0858 7.875 15.75 8.21078 15.75 8.625V16.5C15.75 16.9142 16.0858 17.25 16.5 17.25C16.9142 17.25 17.25 16.9142 17.25 16.5V8.625Z" fill="#020B09"/>
<path d="M12.75 11.25C12.75 10.8358 12.4142 10.5 12 10.5C11.5858 10.5 11.25 10.8358 11.25 11.25V16.5C11.25 16.9142 11.5858 17.25 12 17.25C12.4142 17.25 12.75 16.9142 12.75 16.5V11.25Z" fill="#020B09"/>
</g>
<defs>
<clipPath id="clip0_703_16135">
<rect width="24" height="24" fill="white"/>
</clipPath>
</defs>
</svg>
