<svg width="24" height="24" viewBox="0 0 24 24" fill="none" xmlns="http://www.w3.org/2000/svg">
<g clip-path="url(#clip0_689_2369)">
<path fill-rule="evenodd" clip-rule="evenodd" d="M5.25 0.75C2.76472 0.75 0.75 2.76472 0.75 5.25V13.125C0.75 15.6103 2.76472 17.625 5.25 17.625H8.625C9.03922 17.625 9.375 17.2892 9.375 16.875C9.375 16.4608 9.03922 16.125 8.625 16.125H5.25C3.59314 16.125 2.25 14.7819 2.25 13.125V6.75H21.75V13.125C21.75 14.7819 20.4069 16.125 18.75 16.125H15.375C14.9608 16.125 14.625 16.4608 14.625 16.875C14.625 17.2892 14.9608 17.625 15.375 17.625H18.75C21.2353 17.625 23.25 15.6103 23.25 13.125V5.25C23.25 2.76472 21.2353 0.75 18.75 0.75H5.25ZM21.75 5.25H2.25C2.25 3.59314 3.59314 2.25 5.25 2.25H18.75C20.4069 2.25 21.75 3.59314 21.75 5.25Z" fill="white"/>
<path d="M15.1767 20.1581C15.4573 19.8534 15.4378 19.379 15.1331 19.0983C14.8284 18.8177 14.3539 18.8372 14.0733 19.1419L12.75 20.5786V13.5C12.75 13.0858 12.4142 12.75 12 12.75C11.5858 12.75 11.25 13.0858 11.25 13.5V20.5786L9.92666 19.1419C9.64605 18.8372 9.17156 18.8177 8.86691 19.0983C8.56222 19.379 8.54272 19.8534 8.82334 20.1581L11.4483 23.0081C11.5903 23.1623 11.7904 23.25 12 23.25C12.2096 23.25 12.4096 23.1623 12.5517 23.0081L15.1767 20.1581Z" fill="white"/>
</g>
<defs>
<clipPath id="clip0_689_2369">
<rect width="24" height="24" fill="white"/>
</clipPath>
</defs>
</svg>
