<svg width="16" height="12" viewBox="0 0 16 12" fill="none" xmlns="http://www.w3.org/2000/svg">
<path d="M2.00452 8.34902C2.46389 8.78359 2.96434 9.17257 3.49883 9.5105L2.07968 10.9297C1.96463 11.0488 1.90097 11.2083 1.90241 11.3739C1.90385 11.5395 1.97027 11.6979 2.08737 11.815C2.20447 11.9321 2.36288 11.9985 2.52848 12C2.69407 12.0014 2.85361 11.9378 2.97273 11.8227L7.03252 7.76292L13.7096 1.08587C13.7699 1.0276 13.818 0.957914 13.8511 0.880858C13.8842 0.803803 13.9016 0.720928 13.9024 0.637067C13.9031 0.553206 13.8871 0.47004 13.8554 0.392422C13.8236 0.314803 13.7767 0.244286 13.7174 0.184985C13.6581 0.125685 13.5876 0.0787879 13.51 0.0470315C13.4323 0.0152752 13.3492 -0.00070488 13.2653 2.38463e-05C13.1815 0.000752572 13.0986 0.0181755 13.0215 0.0512759C12.9445 0.0843763 12.8748 0.132491 12.8165 0.192814L11.3304 1.67892C10.6209 1.26411 9.85006 0.96459 9.04663 0.791551C8.56387 0.690677 8.07202 0.639673 7.57884 0.63934C2.84199 0.63934 0.193151 5.18671 0.0826247 5.37934C0.028473 5.47452 0 5.58215 0 5.69166C0 5.80116 0.028473 5.90879 0.0826247 6.00397C0.611648 6.87083 1.25845 7.66005 2.00452 8.34902ZM6.31568 5.69197C6.31568 5.35696 6.44876 5.03567 6.68565 4.79878C6.92254 4.5619 7.24382 4.42881 7.57884 4.42881C7.84871 4.42968 8.11097 4.51835 8.32599 4.68144L6.56831 6.43913C6.40522 6.22411 6.31654 5.96185 6.31568 5.69197ZM7.57884 1.9025C7.9861 1.90284 8.39225 1.94517 8.79083 2.02881C9.3511 2.1491 9.8926 2.34433 10.4007 2.60923L9.22852 3.78081C8.7716 3.38219 8.1852 3.16352 7.57884 3.16566C6.90881 3.16566 6.26624 3.43182 5.79246 3.9056C5.31868 4.37937 5.05252 5.02195 5.05252 5.69197C5.05038 6.29833 5.26905 6.88474 5.66768 7.34166L4.41715 8.59218C3.85752 8.26535 3.33781 7.87451 2.86852 7.42755C2.31015 6.90574 1.81132 6.32366 1.38115 5.69197C2.03294 4.73387 4.24157 1.9025 7.57884 1.9025ZM7.57884 9.48144C7.52641 9.48144 7.47652 9.48144 7.42599 9.47765C7.26062 9.46562 7.09715 9.51911 6.97087 9.62656C6.84459 9.73401 6.76562 9.88682 6.75103 10.052C6.73644 10.2172 6.78738 10.3814 6.89287 10.5094C6.99835 10.6373 7.14991 10.7186 7.31484 10.7358C7.40326 10.744 7.49041 10.7446 7.57884 10.7446C12.3049 10.7446 14.9633 6.19723 15.0744 6.00776C15.129 5.91228 15.1578 5.80418 15.1578 5.69418C15.1578 5.58418 15.129 5.47609 15.0744 5.3806C14.7109 4.78194 14.2877 4.22161 13.8113 3.70818C13.6957 3.59784 13.5427 3.53537 13.383 3.53335C13.2233 3.53132 13.0687 3.5899 12.9505 3.69727C12.8322 3.80465 12.759 3.95285 12.7456 4.11203C12.7323 4.2712 12.7797 4.42953 12.8784 4.55513C13.2037 4.91273 13.5036 5.2926 13.7759 5.69197C13.1209 6.65134 10.9066 9.48144 7.57884 9.48144Z" fill="white"/>
</svg>
