<svg width="24" height="24" viewBox="0 0 24 24" fill="none" xmlns="http://www.w3.org/2000/svg">
<g clip-path="url(#clip0_420_7256)">
<path d="M18 12C14.686 12 12 14.686 12 18C12 21.314 14.686 24 18 24C21.314 24 24 21.314 24 18C24 14.686 21.314 12 18 12ZM18.619 20.414C18.241 20.792 17.739 21 17.205 21H17.203C16.669 21 16.167 20.791 15.79 20.413L13.778 18.401L15.192 16.987L17.205 19L20.82 15.385L22.234 16.799L18.619 20.414ZM21.802 0L24 6.5V7C24 9.206 22.206 11 20 11H19C17.807 11 16.733 10.475 16 9.643C15.267 10.475 14.193 11 13 11H11C9.8 11 8.734 10.458 8 9.618C7.266 10.458 6.2 11 5 11H4C1.794 11 0 9.206 0 7L0.024 6.283L2.198 0H7V5H9V0H15V5H17V0H21.802ZM12.726 24H4C2.346 24 1 22.654 1 21V12.187C1.884 12.701 2.907 13 4 13H5C6.062 13 7.095 12.712 8 12.182C8.905 12.712 9.939 13 11 13H11.765C10.663 14.371 10 16.109 10 18C10 20.39 11.059 22.533 12.726 24Z" fill="white"/>
<path d="M18 12C14.686 12 12 14.686 12 18C12 21.314 14.686 24 18 24C21.314 24 24 21.314 24 18C24 14.686 21.314 12 18 12ZM18.619 20.414C18.241 20.792 17.739 21 17.205 21H17.203C16.669 21 16.167 20.791 15.79 20.413L13.778 18.401L15.192 16.987L17.205 19L20.82 15.385L22.234 16.799L18.619 20.414Z" fill="#3DFFDC"/>
</g>
<defs>
<clipPath id="clip0_420_7256">
<rect width="24" height="24" fill="white"/>
</clipPath>
</defs>
</svg>
