<svg width="32" height="32" viewBox="0 0 32 32" fill="none" xmlns="http://www.w3.org/2000/svg">
<path d="M25.6313 10.7852V14.4697H28.1553C28.6418 14.4697 29.1068 14.2767 29.4658 13.9267C29.8078 13.5802 29.9998 13.1172 29.9998 12.6297C29.9998 11.6122 29.1723 10.7852 28.1548 10.7852H25.6313Z" fill="#75817C"/>
<path d="M2 12.6302C2 13.1177 2.192 13.5807 2.541 13.9337C2.893 14.2772 3.3585 14.4697 3.8445 14.4697H6.3685V10.7852H3.8455C2.828 10.7852 2 11.6132 2 12.6302Z" fill="#75817C"/>
<path d="M9.34036 9.12961C9.34036 11.2321 10.3384 13.2166 12.0179 14.4701H19.9869C21.2669 13.5106 22.1574 12.1376 22.5019 10.5861C22.6069 10.1046 22.6599 9.61411 22.6599 9.12961C22.6599 5.46011 19.6744 2.47461 16.0044 2.47461C12.3344 2.47461 9.33936 5.46011 9.33936 9.12961H9.34036ZM16.5009 4.69761V5.13211C17.5184 5.36111 18.2819 6.26811 18.2819 7.35361C18.2819 7.63011 18.0584 7.85361 17.7819 7.85361C17.5054 7.85361 17.2819 7.63011 17.2819 7.35361C17.2819 6.64761 16.7074 6.07261 16.0009 6.07261C15.2944 6.07261 14.7199 6.64711 14.7199 7.35361C14.7199 8.06011 15.2944 8.63461 16.0009 8.63461C17.2589 8.63461 18.2819 9.65761 18.2819 10.9156C18.2819 12.0011 17.5179 12.9086 16.5009 13.1376V13.5716C16.5009 13.8481 16.2774 14.0716 16.0009 14.0716C15.7244 14.0716 15.5009 13.8481 15.5009 13.5716V13.1376C14.4834 12.9086 13.7199 12.0011 13.7199 10.9156C13.7199 10.6391 13.9434 10.4156 14.2199 10.4156C14.4964 10.4156 14.7199 10.6391 14.7199 10.9156C14.7199 11.6221 15.2944 12.1966 16.0009 12.1966C16.7074 12.1966 17.2819 11.6221 17.2819 10.9156C17.2819 10.2091 16.7074 9.63461 16.0009 9.63461C14.7429 9.63461 13.7199 8.61111 13.7199 7.35361C13.7199 6.26811 14.4834 5.36111 15.5009 5.13211V4.69761C15.5009 4.42111 15.7244 4.19761 16.0009 4.19761C16.2774 4.19761 16.5009 4.42111 16.5009 4.69761Z" fill="#3DFFDC"/>
<path d="M25.1415 15.4686C25.138 15.4686 25.1355 15.4706 25.132 15.4706C25.1285 15.4706 25.126 15.4686 25.1225 15.4686H6.87898C6.87548 15.4686 6.87298 15.4706 6.86948 15.4706C6.86598 15.4706 6.86348 15.4686 6.85998 15.4686H3.84548C3.16898 15.4686 2.52248 15.2291 2.00098 14.7906V27.6836C2.00098 28.1716 2.19298 28.6341 2.54148 28.9866C2.88998 29.3311 3.35498 29.5231 3.84548 29.5231H28.156C28.6465 29.5231 29.1115 29.3311 29.464 28.9826C29.8085 28.6341 30.0005 28.1711 30.0005 27.6831V14.7891C29.475 15.2306 28.8295 15.4681 28.156 15.4681H25.1415V15.4686Z" fill="#75817C"/>
</svg>
