<svg width="27" height="28" viewBox="0 0 27 28" fill="none" xmlns="http://www.w3.org/2000/svg">
<path d="M18.0569 12.7491C17.4597 12.1561 16.776 11.6827 16.0346 11.3402C16.9912 10.5087 17.5983 9.28475 17.5983 7.92011C17.5983 5.42156 15.5654 3.38867 13.0669 3.38867C10.5683 3.38867 8.53541 5.42156 8.53541 7.92011C8.53541 9.28968 9.14669 10.5179 10.1097 11.3493C7.67794 12.4867 5.9834 14.9804 5.9834 17.8538V19.3162C5.9834 21.207 7.52178 22.7454 9.41258 22.7454H16.7204C18.6112 22.7454 20.1496 21.207 20.1496 19.3162V17.7765C20.1496 15.8744 19.4061 14.0891 18.0562 12.7491H18.0569Z" fill="#75817C"/>
<path d="M5.29606 26.1342H3.23785C1.45257 26.1342 0 24.6817 0 22.8964V20.8382C0 20.3528 0.393916 19.9589 0.879277 19.9589C1.36464 19.9589 1.75855 20.3528 1.75855 20.8382V22.8964C1.75855 23.7123 2.42258 24.3757 3.23785 24.3757H5.29606C5.78142 24.3757 6.17534 24.7696 6.17534 25.255C6.17534 25.7403 5.78142 26.1342 5.29606 26.1342ZM26.1342 22.8964V20.8382C26.1342 20.3528 25.7403 19.9589 25.255 19.9589C24.7696 19.9589 24.3757 20.3528 24.3757 20.8382V22.8964C24.3757 23.7123 23.7116 24.3757 22.8964 24.3757H20.8382C20.3528 24.3757 19.9589 24.7696 19.9589 25.255C19.9589 25.7403 20.3528 26.1342 20.8382 26.1342H22.8964C24.6817 26.1342 26.1342 24.6817 26.1342 22.8964ZM1.75855 5.29606V3.23785C1.75855 2.42188 2.42258 1.75855 3.23785 1.75855H5.29606C5.78142 1.75855 6.17534 1.36464 6.17534 0.879277C6.17534 0.393916 5.78142 0 5.29606 0H3.23785C1.45257 0 0 1.45257 0 3.23785V5.29606C0 5.78142 0.393916 6.17534 0.879277 6.17534C1.36464 6.17534 1.75855 5.78142 1.75855 5.29606ZM26.1342 5.29606V3.23785C26.1342 1.45257 24.6817 0 22.8964 0H20.8382C20.3528 0 19.9589 0.393916 19.9589 0.879277C19.9589 1.36464 20.3528 1.75855 20.8382 1.75855H22.8964C23.7123 1.75855 24.3757 2.42258 24.3757 3.23785V5.29606C24.3757 5.78142 24.7696 6.17534 25.255 6.17534C25.7403 6.17534 26.1342 5.78142 26.1342 5.29606Z" fill="#75817C"/>
<path d="M17.8846 14.9528L13.5248 13.7682C13.2245 13.6866 12.9072 13.6866 12.6069 13.7682L8.24705 14.9528C7.48665 15.1596 6.95557 15.8539 6.95557 16.6424V21.7654C6.95557 23.2271 7.55488 24.6382 8.59876 25.6357L8.61775 25.6539C9.7376 26.7189 11.1093 27.5068 12.5858 27.933C12.7426 27.9781 12.9044 28.0013 13.0655 28.0013C13.2266 28.0013 13.3891 27.9788 13.5459 27.933C15.0217 27.5068 16.3941 26.7182 17.5132 25.6539L17.5308 25.6371C18.5761 24.6375 19.1761 23.2264 19.1761 21.7654V16.6424C19.1761 15.8546 18.645 15.1596 17.8846 14.9535V14.9528Z" fill="#3DFFDC"/>
<path d="M12.4729 22.6121C12.2478 22.6121 12.0227 22.5263 11.8511 22.3546L10.4513 20.9548C10.108 20.6115 10.108 20.0544 10.4513 19.7112C10.7946 19.3679 11.3517 19.3679 11.6949 19.7112L12.4729 20.4891L14.6402 18.3219C14.9834 17.9786 15.5406 17.9786 15.8838 18.3219C16.2271 18.6652 16.2271 19.2223 15.8838 19.5656L13.0948 22.3546C12.9231 22.5263 12.698 22.6121 12.4729 22.6121Z" fill="#061C19"/>
</svg>
