<svg width="32" height="32" viewBox="0 0 32 32" fill="none" xmlns="http://www.w3.org/2000/svg">
<path d="M21.0569 14.7491C20.4597 14.1561 19.776 13.6827 19.0346 13.3402C19.9912 12.5087 20.5983 11.2848 20.5983 9.92011C20.5983 7.42156 18.5654 5.38867 16.0669 5.38867C13.5683 5.38867 11.5354 7.42156 11.5354 9.92011C11.5354 11.2897 12.1467 12.5179 13.1097 13.3493C10.6779 14.4867 8.9834 16.9804 8.9834 19.8538V21.3162C8.9834 23.207 10.5218 24.7454 12.4126 24.7454H19.7204C21.6112 24.7454 23.1496 23.207 23.1496 21.3162V19.7765C23.1496 17.8744 22.4061 16.0891 21.0562 14.7491H21.0569Z" fill="#9C9C9C"/>
<path d="M8.29606 28.1342H6.23785C4.45257 28.1342 3 26.6817 3 24.8964V22.8382C3 22.3528 3.39392 21.9589 3.87928 21.9589C4.36464 21.9589 4.75855 22.3528 4.75855 22.8382V24.8964C4.75855 25.7123 5.42258 26.3757 6.23785 26.3757H8.29606C8.78142 26.3757 9.17534 26.7696 9.17534 27.255C9.17534 27.7403 8.78142 28.1342 8.29606 28.1342ZM29.1342 24.8964V22.8382C29.1342 22.3528 28.7403 21.9589 28.255 21.9589C27.7696 21.9589 27.3757 22.3528 27.3757 22.8382V24.8964C27.3757 25.7123 26.7116 26.3757 25.8964 26.3757H23.8382C23.3528 26.3757 22.9589 26.7696 22.9589 27.255C22.9589 27.7403 23.3528 28.1342 23.8382 28.1342H25.8964C27.6817 28.1342 29.1342 26.6817 29.1342 24.8964ZM4.75855 7.29606V5.23785C4.75855 4.42188 5.42258 3.75855 6.23785 3.75855H8.29606C8.78142 3.75855 9.17534 3.36464 9.17534 2.87928C9.17534 2.39392 8.78142 2 8.29606 2H6.23785C4.45257 2 3 3.45257 3 5.23785V7.29606C3 7.78142 3.39392 8.17534 3.87928 8.17534C4.36464 8.17534 4.75855 7.78142 4.75855 7.29606ZM29.1342 7.29606V5.23785C29.1342 3.45257 27.6817 2 25.8964 2H23.8382C23.3528 2 22.9589 2.39392 22.9589 2.87928C22.9589 3.36464 23.3528 3.75855 23.8382 3.75855H25.8964C26.7123 3.75855 27.3757 4.42258 27.3757 5.23785V7.29606C27.3757 7.78142 27.7696 8.17534 28.255 8.17534C28.7403 8.17534 29.1342 7.78142 29.1342 7.29606Z" fill="#9C9C9C"/>
<path d="M20.8846 16.9528L16.5248 15.7682C16.2245 15.6866 15.9072 15.6866 15.6069 15.7682L11.247 16.9528C10.4866 17.1596 9.95557 17.8539 9.95557 18.6424V23.7654C9.95557 25.2271 10.5549 26.6382 11.5988 27.6357L11.6178 27.6539C12.7376 28.7189 14.1093 29.5068 15.5858 29.933C15.7426 29.9781 15.9044 30.0013 16.0655 30.0013C16.2266 30.0013 16.3891 29.9788 16.5459 29.933C18.0217 29.5068 19.3941 28.7182 20.5132 27.6539L20.5308 27.6371C21.5761 26.6375 22.1761 25.2264 22.1761 23.7654V18.6424C22.1761 17.8546 21.645 17.1596 20.8846 16.9535V16.9528Z" fill="#006553"/>
<path d="M15.4729 24.6121C15.2478 24.6121 15.0227 24.5263 14.8511 24.3546L13.4513 22.9548C13.108 22.6115 13.108 22.0544 13.4513 21.7112C13.7946 21.3679 14.3517 21.3679 14.6949 21.7112L15.4729 22.4891L17.6402 20.3219C17.9834 19.9786 18.5406 19.9786 18.8838 20.3219C19.2271 20.6652 19.2271 21.2223 18.8838 21.5656L16.0948 24.3546C15.9231 24.5263 15.698 24.6121 15.4729 24.6121Z" fill="white"/>
</svg>
