<svg width="24" height="24" viewBox="0 0 24 24" fill="none" xmlns="http://www.w3.org/2000/svg">
<g clip-path="url(#clip0_420_7263)">
<path d="M19.317 14.6566L9.585 11.1186C8.885 10.8596 8.095 11.0356 7.567 11.5636C7.034 12.0956 6.863 12.8676 7.121 13.5756L10.662 23.3126L14.283 19.6916L18.525 23.9326L19.939 22.5186L15.697 18.2776L19.318 14.6566H19.317ZM21 0.015625H3C1.343 0.015625 0 1.35863 0 3.01563V12.0156H5.108C5.272 11.3256 5.623 10.6796 6.154 10.1496C6.788 9.51563 7.611 9.13863 8.471 9.03763V1.99863H11.971V3.59863H10.071V5.24863H11.971V6.84863H10.071V8.39963H11.971V9.85863L17.906 12.0166H24.001V3.01563C24 1.35863 22.657 0.015625 21 0.015625ZM7.442 7.97863C7.251 9.15363 6.227 10.0066 5.006 10.0066C4.041 10.0066 3.133 9.59363 2.5 8.87063L3.509 7.86463C3.882 8.27063 4.434 8.51063 5.006 8.51063C5.61 8.51063 6.037 8.10663 6.102 7.71563C6.191 7.16563 5.5 6.84263 5.285 6.75663C4.37 6.38563 3.534 5.97663 3.532 5.97663C2.84 5.49263 2.505 4.74563 2.611 3.92763C2.722 3.08263 3.285 2.39363 4.082 2.13163C5.406 1.69463 6.544 2.44863 6.945 2.81763L6.085 3.93063C5.866 3.76463 5.204 3.32863 4.474 3.56363C4.062 3.69963 3.957 4.01063 3.959 4.14063C3.964 4.58263 4.294 4.71063 4.392 4.75563C4.674 4.88363 5.198 5.12363 5.758 5.35063C7.219 5.94163 7.586 7.09563 7.443 7.97763L7.442 7.97863ZM16.971 9.99863H13.471V1.99863H15.071V8.39863H16.971V9.99863ZM21.471 9.99863H17.971V1.99863H19.571V8.39863H21.471V9.99863Z" fill="white"/>
<path d="M19.3177 14.6579L9.58568 11.1199C8.88568 10.8609 8.09568 11.0369 7.56768 11.5649C7.03468 12.0969 6.86368 12.8689 7.12168 13.5769L10.6627 23.3139L14.2837 19.6929L18.5257 23.9339L19.9397 22.5199L15.6977 18.2789L19.3187 14.6579H19.3177Z" fill="#3DFFDC"/>
</g>
<defs>
<clipPath id="clip0_420_7263">
<rect width="24" height="24" fill="white"/>
</clipPath>
</defs>
</svg>
