<svg width="24" height="24" viewBox="0 0 24 24" fill="none" xmlns="http://www.w3.org/2000/svg">
<path d="M7.293 7.121C6.902 6.73 6.902 6.098 7.293 5.707C7.684 5.316 8.316 5.316 8.707 5.707L11 8V1C11 0.447 11.447 0 12 0C12.553 0 13 0.447 13 1V8L15.293 5.707C15.684 5.316 16.316 5.316 16.707 5.707C17.098 6.098 17.098 6.73 16.707 7.121L13.414 10.414C13.027 10.801 12.518 10.996 12.009 10.998L12 11L11.991 10.998C11.482 10.996 10.973 10.801 10.586 10.414L7.293 7.121ZM21 12H18C16.897 12 16 12.897 16 14C16 15.103 15.103 16 14 16H10C8.897 16 8 15.103 8 14C8 12.897 7.103 12 6 12H3C1.346 12 0 13.346 0 15V19C0 21.757 2.243 24 5 24H19C21.757 24 24 21.757 24 19V15C24 13.346 22.654 12 21 12Z" fill="white"/>
<path d="M7.29325 7.121C6.90225 6.73 6.90225 6.098 7.29325 5.707C7.68425 5.316 8.31625 5.316 8.70725 5.707L11.0003 8V1C11.0003 0.447 11.4472 0 12.0002 0C12.5532 0 13.0003 0.447 13.0003 1V8L15.2933 5.707C15.6843 5.316 16.3163 5.316 16.7073 5.707C17.0983 6.098 17.0983 6.73 16.7073 7.121L13.4142 10.414C13.0272 10.801 12.5183 10.996 12.0093 10.998L12.0002 11L11.9913 10.998C11.4823 10.996 10.9733 10.801 10.5863 10.414L7.29325 7.121Z" fill="#3DFFDC"/>
</svg>
