<svg width="32" height="32" viewBox="0 0 32 32" fill="none" xmlns="http://www.w3.org/2000/svg">
<path fill-rule="evenodd" clip-rule="evenodd" d="M22.3986 18.0621C22.4562 16.6893 22.441 15.313 22.3546 13.9383V13.9381C22.1527 10.7003 19.3321 8.21265 16.0944 8.41682L16.0941 8.41688C13.9899 8.54783 12.2038 9.78516 11.265 11.5253C11.1334 11.7692 10.8287 11.8603 10.5849 11.7288C10.341 11.5972 10.2499 11.2924 10.3814 11.0486C11.4797 9.01315 13.5703 7.56813 16.0315 7.4149C19.82 7.17616 23.1203 10.087 23.3566 13.8755C23.4444 15.2719 23.4603 16.6699 23.4034 18.0645C24.1311 18.1325 24.8187 18.3428 25.4381 18.6673C25.4484 18.4745 25.4574 18.2816 25.4651 18.0886C25.4762 17.8118 25.7099 17.5961 25.9867 17.6071C26.2635 17.6181 26.4793 17.8519 26.4682 18.1286C26.4525 18.5232 26.4314 18.9173 26.4048 19.311C27.6302 20.3262 28.4133 21.8583 28.4133 23.5663C28.4133 26.6082 25.9294 29.0921 22.8875 29.0921C19.8457 29.0921 17.3618 26.6082 17.3618 23.5663C17.3618 21.9194 18.0898 20.4361 19.2404 19.4219C19.3888 17.6629 19.4067 15.8925 19.2966 14.131C19.1983 12.5739 17.8418 11.379 16.2868 11.475C14.7297 11.5733 13.5348 12.9299 13.631 14.485C13.7044 15.6551 13.7118 16.8275 13.6505 17.9976C13.6361 18.2743 13.3997 18.4872 13.123 18.4727C12.8464 18.4582 12.6335 18.2218 12.648 17.9452C12.7071 16.8134 12.7001 15.6792 12.629 14.5475L12.629 14.547C12.4988 12.4421 14.1163 10.6059 16.2239 10.473L16.2245 10.4729C18.3294 10.3428 20.1656 11.9602 20.2986 14.0678V14.0681C20.3946 15.6053 20.3959 17.1489 20.3007 18.6864C20.937 18.3471 21.6467 18.1286 22.3986 18.0621ZM22.8875 28.0882C25.3768 28.0882 27.4094 26.0555 27.4094 23.5663C27.4094 21.0771 25.3768 19.0445 22.8875 19.0445C20.3983 19.0445 18.3657 21.0771 18.3657 23.5663C18.3657 26.0555 20.3983 28.0882 22.8875 28.0882ZM20.1704 24.0618C19.9745 23.8659 19.9745 23.5479 20.1704 23.3519C20.3663 23.156 20.6844 23.156 20.8803 23.3519L21.9203 24.3919L24.9123 21.6759C25.1174 21.4897 25.4352 21.505 25.6213 21.7102C25.8076 21.9153 25.7922 22.233 25.5871 22.4192L22.241 25.4568C22.0426 25.6367 21.738 25.6294 21.5486 25.44L20.1704 24.0618ZM15.9616 14.3381C15.9442 14.0616 16.1545 13.823 16.431 13.8056C16.7075 13.7881 16.9461 13.9984 16.9635 14.275C17.1714 17.5709 16.9241 21.2482 15.8898 25.0454C15.817 25.3127 15.5409 25.4706 15.2735 25.3978C15.0063 25.325 14.8484 25.0489 14.9212 24.7816C15.924 21.0997 16.1631 17.5339 15.9616 14.3381ZM6.22715 24.2181C6.13384 24.4789 5.84628 24.615 5.58545 24.5217C5.32456 24.4283 5.18853 24.1408 5.28189 23.8799C6.30633 21.0161 6.70125 17.9802 6.51044 14.9326C6.49312 14.6561 6.70357 14.4176 6.98009 14.4003C7.25661 14.383 7.4951 14.5934 7.51242 14.8699C7.71176 18.0541 7.29751 21.2259 6.22715 24.2181ZM8.32892 10.5324C8.21246 10.7838 7.91386 10.8933 7.6625 10.7768C7.41108 10.6604 7.30159 10.3618 7.41805 10.1104C8.9521 6.79881 12.1825 4.58259 15.8389 4.35439C16.1155 4.33713 16.354 4.54764 16.3712 4.8241C16.3885 5.10061 16.178 5.33911 15.9015 5.35636C12.6135 5.5616 9.70843 7.55445 8.32892 10.5324ZM19.712 5.94686C19.4538 5.84653 19.3256 5.55539 19.426 5.29713C19.5264 5.03894 19.8175 4.91081 20.0757 5.0112C23.6889 6.41588 26.1737 9.79326 26.4171 13.6828C26.4344 13.9593 26.2239 14.1978 25.9475 14.2152C25.671 14.2325 25.4324 14.022 25.4151 13.7455C25.1962 10.2475 22.9615 7.21017 19.712 5.94686ZM8.55681 26.6754C8.4482 26.9303 8.15311 27.049 7.89824 26.9404C7.64337 26.8318 7.52465 26.5367 7.6332 26.2819C8.39549 24.4931 8.94301 22.624 9.26627 20.7078C9.59706 18.7373 9.69375 16.7313 9.5709 14.7395C9.55383 14.463 9.76453 14.2247 10.041 14.2076C10.3176 14.1906 10.5559 14.4012 10.5729 14.6777C10.7005 16.7457 10.5998 18.8283 10.2563 20.8742L10.2563 20.8746C9.91982 22.8688 9.35003 24.8138 8.55681 26.6754ZM11.9988 26.287C11.9051 26.5478 11.6175 26.6835 11.3567 26.5899C11.096 26.4963 10.9603 26.2086 11.0539 25.9478C11.6049 24.413 12.0163 22.8286 12.2883 21.2157C12.3343 20.9425 12.5935 20.7581 12.8667 20.8041C13.1399 20.8503 13.3243 21.1094 13.2783 21.3826C12.9963 23.0542 12.5699 24.6963 11.9988 26.287ZM6.12468 30.4177C6.40177 30.4177 6.62664 30.6426 6.62664 30.9197C6.62664 31.1967 6.40177 31.4216 6.12468 31.4216H0.801766C0.524558 31.4216 0.299805 31.1969 0.299805 30.9197V25.5967C0.299805 25.3197 0.524746 25.0948 0.801766 25.0948C1.07879 25.0948 1.30373 25.3197 1.30373 25.5967V30.4177H6.12468ZM25.5965 31.4216C25.3194 31.4216 25.0945 31.1967 25.0945 30.9197C25.0945 30.6426 25.3194 30.4177 25.5965 30.4177H30.4175V25.5967C30.4175 25.3197 30.6424 25.0948 30.9194 25.0948C31.1964 25.0948 31.4214 25.3197 31.4214 25.5967V30.9197C31.4214 31.1969 31.1966 31.4216 30.9194 31.4216H25.5965ZM25.5965 1.30397C25.3194 1.30397 25.0945 1.07903 25.0945 0.80201C25.0945 0.52499 25.3194 0.300049 25.5965 0.300049H30.9194C31.1966 0.300049 31.4214 0.524802 31.4214 0.80201V6.12493C31.4214 6.40201 31.1964 6.62689 30.9194 6.62689C30.6424 6.62689 30.4175 6.40201 30.4175 6.12493V1.30397H25.5965ZM1.30373 6.12493C1.30373 6.40201 1.07879 6.62689 0.801766 6.62689C0.524746 6.62689 0.299805 6.40201 0.299805 6.12493V0.80201C0.299805 0.524802 0.524558 0.300049 0.801766 0.300049H6.12468C6.40177 0.300049 6.62664 0.52499 6.62664 0.80201C6.62664 1.07903 6.40177 1.30397 6.12468 1.30397H1.30373V6.12493ZM0.801766 16.3628C0.524746 16.3628 0.299805 16.1379 0.299805 15.8608C0.299805 15.5838 0.524746 15.3589 0.801766 15.3589H5.52609C5.80318 15.3589 6.02806 15.5838 6.02806 15.8608C6.02806 16.1379 5.80318 16.3628 5.52609 16.3628H0.801766ZM26.097 16.3628C25.8199 16.3628 25.595 16.1379 25.595 15.8608C25.595 15.5838 25.8199 15.3589 26.097 15.3589H30.8213C31.0983 15.3589 31.3232 15.5838 31.3232 15.8608C31.3232 16.1379 31.0983 16.3628 30.8213 16.3628H26.097Z" fill="#75817C" stroke="#75817C" stroke-width="0.6"/>
</svg>
