<svg width="32" height="32" viewBox="0 0 32 32" fill="none" xmlns="http://www.w3.org/2000/svg">
<g clip-path="url(#clip0_35_4014)">
<path fill-rule="evenodd" clip-rule="evenodd" d="M22.5383 18.2012C22.5958 16.8284 22.5807 15.4522 22.4943 14.0774V14.0772C22.2924 10.8395 19.4718 8.35181 16.2341 8.55598L16.2337 8.55604C14.1296 8.68699 12.3435 9.92432 11.4046 11.6645C11.2731 11.9083 10.9683 11.9994 10.7245 11.8679C10.4807 11.7363 10.3895 11.4316 10.5211 11.1878C11.6193 9.15231 13.7099 7.70729 16.1712 7.55406C19.9596 7.31532 23.2599 10.2261 23.4963 14.0147C23.584 15.4111 23.6 16.8091 23.543 18.2037C24.2707 18.2717 24.9584 18.482 25.5777 18.8065C25.5881 18.6136 25.597 18.4208 25.6048 18.2278C25.6158 17.951 25.8495 17.7352 26.1264 17.7463C26.4032 17.7573 26.6189 17.991 26.6079 18.2678C26.5922 18.6623 26.571 19.0565 26.5445 19.4502C27.7698 20.4654 28.553 21.9975 28.553 23.7055C28.553 26.7474 26.069 29.2312 23.0272 29.2312C19.9853 29.2312 17.5014 26.7474 17.5014 23.7055C17.5014 22.0586 18.2294 20.5752 19.38 19.5611C19.5285 17.8021 19.5463 16.0317 19.4362 14.2701C19.338 12.713 17.9815 11.5181 16.4264 11.6141C14.8693 11.7124 13.6745 13.0691 13.7707 14.6242C13.8441 15.7943 13.8514 16.9667 13.7902 18.1368C13.7757 18.4134 13.5394 18.6263 13.2627 18.6118C12.986 18.5973 12.7731 18.361 12.7876 18.0843C12.8468 16.9525 12.8397 15.8184 12.7687 14.6866L12.7686 14.6862C12.6385 12.5813 14.2559 10.7451 16.3635 10.6121L16.3642 10.6121C18.469 10.4819 20.3052 12.0994 20.4382 14.207V14.2073C20.5343 15.7444 20.5355 17.2881 20.4403 18.8256C21.0766 18.4863 21.7863 18.2678 22.5383 18.2012ZM23.0272 28.2273C25.5164 28.2273 27.549 26.1947 27.549 23.7055C27.549 21.2162 25.5164 19.1836 23.0272 19.1836C20.538 19.1836 18.5053 21.2162 18.5053 23.7055C18.5053 26.1947 20.538 28.2273 23.0272 28.2273ZM20.3101 24.201C20.1142 24.0051 20.1142 23.687 20.3101 23.4911C20.506 23.2952 20.824 23.2952 21.0199 23.4911L22.0599 24.5311L25.052 21.815C25.2571 21.6289 25.5748 21.6442 25.761 21.8493C25.9472 22.0545 25.9318 22.3722 25.7267 22.5584L22.3806 25.5959C22.1823 25.7759 21.8776 25.7685 21.6883 25.5792L20.3101 24.201ZM16.1013 14.4772C16.0838 14.2008 16.2941 13.9622 16.5707 13.9447C16.8471 13.9273 17.0857 14.1376 17.1032 14.4141C17.311 17.71 17.0637 21.3874 16.0295 25.1846C15.9566 25.4519 15.6806 25.6097 15.4132 25.5369C15.1459 25.4642 14.988 25.188 15.0608 24.9207C16.0637 21.2388 16.3028 17.6731 16.1013 14.4772ZM6.3668 24.3573C6.27349 24.6181 5.98593 24.7541 5.7251 24.6608C5.46421 24.5675 5.32818 24.28 5.42154 24.0191C6.44598 21.1553 6.8409 18.1193 6.65009 15.0718C6.63277 14.7953 6.84322 14.5567 7.11974 14.5395C7.39625 14.5222 7.63475 14.7326 7.65207 15.0091C7.85141 18.1932 7.43716 21.365 6.3668 24.3573ZM8.46857 10.6716C8.35211 10.9229 8.05351 11.0325 7.80215 10.916C7.55073 10.7996 7.44124 10.501 7.5577 10.2495C9.09175 6.93797 12.3222 4.72175 15.9786 4.49355C16.2551 4.47629 16.4936 4.6868 16.5109 4.96326C16.5281 5.23977 16.3177 5.47827 16.0411 5.49552C12.7531 5.70076 9.84808 7.69361 8.46857 10.6716ZM19.8517 6.08602C19.5934 5.98569 19.4653 5.69455 19.5657 5.43629C19.6661 5.1781 19.9572 5.04997 20.2154 5.15036C23.8286 6.55504 26.3133 9.93242 26.5567 13.822C26.574 14.0984 26.3636 14.337 26.0871 14.3543C25.8106 14.3716 25.5721 14.1612 25.5547 13.8847C25.3359 10.3867 23.1011 7.34933 19.8517 6.08602ZM8.69646 26.8146C8.58785 27.0694 8.29276 27.1881 8.03789 27.0795C7.78301 26.971 7.6643 26.6759 7.77285 26.421C8.53514 24.6322 9.08265 22.7632 9.40592 20.8469C9.73671 18.8764 9.8334 16.8705 9.71054 14.8787C9.69348 14.6022 9.90418 14.3639 10.1807 14.3468C10.4572 14.3297 10.6955 14.5404 10.7126 14.8169C10.8401 16.8848 10.7394 18.9675 10.396 21.0133L10.3959 21.0138C10.0595 23.0079 9.48968 24.953 8.69646 26.8146ZM12.1384 26.4262C12.0448 26.6869 11.7571 26.8226 11.4963 26.729C11.2356 26.6354 11.0999 26.3477 11.1935 26.087C11.7446 24.5522 12.156 22.9677 12.4279 21.3548C12.474 21.0817 12.7332 20.8972 13.0064 20.9433C13.2795 20.9894 13.464 21.2486 13.4179 21.5218C13.136 23.1933 12.7095 24.8355 12.1384 26.4262ZM6.26433 30.5569C6.54141 30.5569 6.76629 30.7818 6.76629 31.0588C6.76629 31.3358 6.54141 31.5608 6.26433 31.5608H0.941414C0.664206 31.5608 0.439453 31.336 0.439453 31.0588V25.7359C0.439453 25.4588 0.664394 25.2339 0.941414 25.2339C1.21843 25.2339 1.44337 25.4588 1.44337 25.7359V30.5569H6.26433ZM25.7361 31.5608C25.4591 31.5608 25.2342 31.3358 25.2342 31.0588C25.2342 30.7818 25.4591 30.5569 25.7361 30.5569H30.5571V25.7359C30.5571 25.4588 30.782 25.2339 31.0591 25.2339C31.3361 25.2339 31.561 25.4588 31.561 25.7359V31.0588C31.561 31.336 31.3363 31.5608 31.0591 31.5608H25.7361ZM25.7361 1.44313C25.4591 1.44313 25.2342 1.21819 25.2342 0.94117C25.2342 0.66415 25.4591 0.439209 25.7361 0.439209H31.0591C31.3363 0.439209 31.561 0.663962 31.561 0.94117V6.26409C31.561 6.54117 31.3361 6.76605 31.0591 6.76605C30.782 6.76605 30.5571 6.54117 30.5571 6.26409V1.44313H25.7361ZM1.44337 6.26409C1.44337 6.54117 1.21843 6.76605 0.941414 6.76605C0.664394 6.76605 0.439453 6.54117 0.439453 6.26409V0.94117C0.439453 0.663962 0.664206 0.439209 0.941414 0.439209H6.26433C6.54141 0.439209 6.76629 0.66415 6.76629 0.94117C6.76629 1.21819 6.54141 1.44313 6.26433 1.44313H1.44337V6.26409ZM0.941414 16.502C0.664394 16.502 0.439453 16.277 0.439453 16C0.439453 15.723 0.664394 15.498 0.941414 15.498H5.66574C5.94283 15.498 6.1677 15.723 6.1677 16C6.1677 16.277 5.94283 16.502 5.66574 16.502H0.941414ZM26.2366 16.502C25.9595 16.502 25.7346 16.277 25.7346 16C25.7346 15.723 25.9595 15.498 26.2366 15.498H30.9609C31.2379 15.498 31.4629 15.723 31.4629 16C31.4629 16.277 31.2379 16.502 30.9609 16.502H26.2366Z" fill="white" stroke="white" stroke-width="0.6"/>
</g>
<defs>
<clipPath id="clip0_35_4014">
<rect width="32" height="32" fill="white"/>
</clipPath>
</defs>
</svg>
