<svg width="32" height="32" viewBox="0 0 32 32" fill="none" xmlns="http://www.w3.org/2000/svg">
<path d="M16.0005 18.2634C17.3572 18.2634 18.6835 17.8611 19.8115 17.1073C20.9396 16.3535 21.8188 15.2822 22.338 14.0287C22.8571 12.7753 22.993 11.396 22.7283 10.0654C22.4636 8.73474 21.8103 7.51246 20.8509 6.55312C19.8916 5.59377 18.6693 4.94045 17.3387 4.67576C16.008 4.41107 14.6288 4.54691 13.3753 5.06609C12.1219 5.58528 11.0505 6.46449 10.2967 7.59255C9.54298 8.72061 9.14065 10.0468 9.14062 11.4036C9.14266 13.2223 9.86605 14.9659 11.1521 16.252C12.4381 17.538 14.1818 18.2614 16.0005 18.2634ZM16.0005 5.54393C17.1594 5.54395 18.2923 5.88764 19.256 6.53154C20.2196 7.17544 20.9706 8.09062 21.4141 9.16135C21.8576 10.2321 21.9736 11.4103 21.7475 12.547C21.5214 13.6836 20.9633 14.7277 20.1437 15.5472C19.3242 16.3667 18.2801 16.9248 17.1434 17.1508C16.0068 17.3769 14.8286 17.2609 13.7578 16.8173C12.6871 16.3738 11.772 15.6227 11.1281 14.6591C10.4843 13.6954 10.1406 12.5625 10.1406 11.4036C10.1425 9.85002 10.7604 8.36063 11.859 7.26212C12.9575 6.16362 14.4469 5.54569 16.0005 5.54393Z" fill="white" stroke="white" stroke-width="0.6"/>
<path d="M24.7183 19.6653L20.293 18.1905C20.226 18.1684 20.1552 18.1607 20.085 18.1677C20.0149 18.1747 19.947 18.1964 19.8857 18.2312C18.6986 18.8961 17.3607 19.2453 16 19.2453C14.6393 19.2453 13.3014 18.8961 12.1142 18.2312C12.053 18.1963 11.9851 18.1746 11.915 18.1675C11.8448 18.1605 11.774 18.1683 11.707 18.1905L7.28125 19.6656C6.1183 20.0539 5.10704 20.7983 4.39071 21.7934C3.67438 22.7885 3.28931 23.9837 3.29004 25.2098V27.9749C3.29063 28.5117 3.50416 29.0264 3.88377 29.4061C4.26339 29.7857 4.77808 29.9992 5.31494 29.9998H26.6851C27.2219 29.9992 27.7366 29.7857 28.1162 29.4061C28.4958 29.0264 28.7094 28.5117 28.71 27.9749V25.2098C28.7107 23.9836 28.3255 22.7883 27.6091 21.7932C26.8927 20.7981 25.8813 20.0536 24.7183 19.6653ZM27.71 27.9749C27.7096 28.2466 27.6015 28.5071 27.4094 28.6992C27.2173 28.8914 26.9568 28.9995 26.6851 28.9998H5.31494C5.04322 28.9995 4.78273 28.8914 4.59059 28.6992C4.39846 28.5071 4.29037 28.2466 4.29004 27.9749V25.2098C4.28939 24.1935 4.60853 23.2027 5.20226 22.3779C5.79598 21.5531 6.6342 20.936 7.59815 20.6141L11.8145 19.2088C13.1045 19.8899 14.5412 20.2459 16 20.2459C17.4588 20.2459 18.8955 19.8899 20.1855 19.2088L24.4014 20.6138C25.3654 20.9357 26.2037 21.5528 26.7976 22.3777C27.3914 23.2025 27.7106 24.1934 27.71 25.2097V27.9749Z" fill="white" stroke="white" stroke-width="0.6"/>
<path d="M26.6987 14.2246C26.6331 14.2246 26.568 14.2375 26.5074 14.2626C26.4467 14.2878 26.3916 14.3246 26.3451 14.371C26.2987 14.4174 26.2619 14.4726 26.2368 14.5332C26.2116 14.5939 26.1987 14.6589 26.1987 14.7246V17.2637H23.6777C23.5451 17.2637 23.4179 17.3163 23.3242 17.4101C23.2304 17.5039 23.1777 17.6311 23.1777 17.7637C23.1777 17.8963 23.2304 18.0235 23.3242 18.1172C23.4179 18.211 23.5451 18.2637 23.6777 18.2637H26.6987C26.7644 18.2637 26.8294 18.2508 26.8901 18.2256C26.9508 18.2005 27.0059 18.1637 27.0523 18.1173C27.0988 18.0708 27.1356 18.0157 27.1607 17.955C27.1858 17.8944 27.1988 17.8293 27.1987 17.7637V14.7246C27.1988 14.6589 27.1858 14.5939 27.1607 14.5332C27.1356 14.4726 27.0988 14.4175 27.0523 14.371C27.0059 14.3246 26.9508 14.2878 26.8901 14.2626C26.8294 14.2375 26.7644 14.2246 26.6987 14.2246Z" fill="white" stroke="white" stroke-width="0.6"/>
<path d="M23.6426 3H26.1992V5.04419C26.1992 5.1768 26.2519 5.30398 26.3457 5.39774C26.4394 5.49151 26.5666 5.54419 26.6992 5.54419C26.8318 5.54419 26.959 5.49151 27.0528 5.39774C27.1465 5.30398 27.1992 5.1768 27.1992 5.04419V2.5C27.1992 2.43433 27.1863 2.36931 27.1612 2.30864C27.1361 2.24797 27.0992 2.19284 27.0528 2.14641C27.0064 2.09998 26.9512 2.06315 26.8906 2.03803C26.8299 2.0129 26.7649 1.99998 26.6992 2H23.6426C23.51 2 23.3828 2.05268 23.289 2.14645C23.1953 2.24021 23.1426 2.36739 23.1426 2.5C23.1426 2.63261 23.1953 2.75979 23.289 2.85355C23.3828 2.94732 23.51 3 23.6426 3Z" fill="white" stroke="white" stroke-width="0.6"/>
<path d="M5.30078 5.54419C5.36645 5.54421 5.43147 5.53129 5.49214 5.50617C5.55281 5.48105 5.60794 5.44422 5.65437 5.39778C5.70081 5.35135 5.73764 5.29622 5.76276 5.23555C5.78788 5.17488 5.8008 5.10986 5.80078 5.04419V3H8.35742C8.49003 3 8.61721 2.94732 8.71098 2.85355C8.80474 2.75979 8.85742 2.63261 8.85742 2.5C8.85742 2.36739 8.80474 2.24021 8.71098 2.14645C8.61721 2.05268 8.49003 2 8.35742 2H5.30078C5.23512 1.99998 5.17009 2.0129 5.10942 2.03803C5.04875 2.06315 4.99362 2.09998 4.94719 2.14641C4.90076 2.19284 4.86393 2.24797 4.83881 2.30864C4.81369 2.36931 4.80076 2.43433 4.80078 2.5V5.04419C4.80076 5.10986 4.81369 5.17488 4.83881 5.23555C4.86393 5.29622 4.90076 5.35135 4.94719 5.39778C4.99362 5.44421 5.04875 5.48104 5.10942 5.50616C5.17009 5.53129 5.23512 5.54421 5.30078 5.54419Z" fill="white" stroke="white" stroke-width="0.6"/>
<path d="M5.30078 18.2637H8.35742C8.49003 18.2637 8.61721 18.211 8.71098 18.1172C8.80474 18.0235 8.85742 17.8963 8.85742 17.7637C8.85742 17.6311 8.80474 17.5039 8.71098 17.4101C8.61721 17.3163 8.49003 17.2637 8.35742 17.2637H5.80078V14.7246C5.80078 14.592 5.7481 14.4648 5.65434 14.3711C5.56057 14.2773 5.43339 14.2246 5.30078 14.2246C5.16817 14.2246 5.041 14.2773 4.94723 14.3711C4.85346 14.4648 4.80078 14.592 4.80078 14.7246V17.7637C4.80076 17.8293 4.81369 17.8944 4.83881 17.955C4.86393 18.0157 4.90076 18.0708 4.94719 18.1173C4.99362 18.1637 5.04875 18.2005 5.10942 18.2256C5.17009 18.2508 5.23512 18.2637 5.30078 18.2637Z" fill="white" stroke="white" stroke-width="0.6"/>
<path d="M15.1628 13.2746C15.2092 13.321 15.2643 13.3579 15.3249 13.383C15.3856 13.4082 15.4506 13.4211 15.5163 13.4211C15.5819 13.4211 15.6469 13.4082 15.7076 13.383C15.7683 13.3579 15.8234 13.321 15.8698 13.2746L18.903 10.2412C18.9968 10.1474 19.0494 10.0202 19.0494 9.88764C19.0494 9.75505 18.9968 9.62789 18.903 9.53413C18.8092 9.44037 18.6821 9.3877 18.5495 9.3877C18.4169 9.38769 18.2897 9.44037 18.196 9.53413L15.5163 12.2141L14.3532 11.0507C14.2592 10.9579 14.1324 10.9061 14.0003 10.9065C13.8683 10.9069 13.7417 10.9596 13.6484 11.053C13.555 11.1463 13.5024 11.2729 13.502 11.4049C13.5015 11.537 13.5534 11.6638 13.6462 11.7578L15.1628 13.2746Z" fill="white" stroke="white" stroke-width="0.6"/>
</svg>
