<svg width="32" height="32" viewBox="0 0 32 32" fill="none" xmlns="http://www.w3.org/2000/svg">
<path d="M17.3329 27.4672H6.66621C3.99954 27.4672 1.86621 25.3339 1.86621 22.6672V6.66719C1.86621 4.00052 3.99954 1.86719 6.66621 1.86719H22.6662C25.3329 1.86719 27.4662 4.00052 27.4662 6.66719V17.3339C27.4662 17.6005 27.3329 17.8672 27.0662 18.0005C26.7995 18.1339 26.5329 18.1339 26.2662 17.8672C25.1995 17.0672 23.9995 16.6672 22.7995 16.6672C19.5995 16.6672 16.9329 19.3339 16.9329 22.5339C16.9329 23.8672 17.3329 25.0672 18.1329 26.0005C18.2662 26.2672 18.3995 26.5339 18.2662 26.8005C17.8662 27.3339 17.5995 27.4672 17.3329 27.4672ZM6.66621 3.46719C4.93288 3.46719 3.46621 4.93385 3.46621 6.66719V22.6672C3.46621 24.4005 4.93288 25.8672 6.66621 25.8672H15.8662C15.3329 24.9339 15.1995 23.7339 15.1995 22.6672C15.1995 18.5339 18.5329 15.2005 22.6662 15.2005C23.7329 15.2005 24.9329 15.4672 25.8662 15.8672V6.66719C25.8662 4.93385 24.3995 3.46719 22.6662 3.46719H6.66621Z" fill="#75817C"/>
<path d="M17.3334 27.4672H6.66676C5.73343 27.4672 4.80009 27.2005 4.13343 26.6672C3.86676 26.5339 3.73343 26.1339 3.86676 25.7339C5.46676 20.9339 9.73343 17.8672 14.8001 17.8672C15.7334 17.8672 16.6668 18.0005 17.4668 18.1339C17.7334 18.1339 17.8668 18.4005 18.0001 18.6672C18.1334 18.9339 18.0001 19.2005 17.8668 19.3339C17.2001 20.2672 16.9334 21.4672 16.9334 22.5339C16.9334 23.8672 17.3334 25.0672 18.1334 26.0005C18.2668 26.2672 18.4001 26.5339 18.2668 26.8005C17.8668 27.3339 17.6001 27.4672 17.3334 27.4672ZM5.46676 25.6005C5.86676 25.7339 6.26676 25.8672 6.66676 25.8672H15.8668C15.3334 24.9339 15.2001 23.7339 15.2001 22.6672C15.2001 21.6005 15.4668 20.5339 15.8668 19.6005C15.4668 19.6005 15.0668 19.4672 14.6668 19.4672C10.6668 19.4672 7.06676 21.8672 5.46676 25.6005Z" fill="#75817C"/>
<path d="M14.6662 15.4672C11.9995 15.4672 9.86621 13.3339 9.86621 10.6672C9.86621 8.00052 11.9995 5.86719 14.6662 5.86719C17.3329 5.86719 19.4662 8.00052 19.4662 10.6672C19.4662 13.3339 17.3329 15.4672 14.6662 15.4672ZM14.6662 7.46719C12.9329 7.46719 11.4662 8.93385 11.4662 10.6672C11.4662 12.4005 12.9329 13.8672 14.6662 13.8672C16.3995 13.8672 17.8662 12.4005 17.8662 10.6672C17.8662 8.93385 16.3995 7.46719 14.6662 7.46719Z" fill="#75817C"/>
<path d="M22.6669 30.133C18.5335 30.133 15.2002 26.7997 15.2002 22.6664C15.2002 18.533 18.5335 15.1997 22.6669 15.1997C26.8002 15.1997 30.1335 18.533 30.1335 22.6664C30.1335 26.7997 26.8002 30.133 22.6669 30.133ZM22.6669 16.7997C19.4669 16.7997 16.8002 19.4664 16.8002 22.6664C16.8002 25.8664 19.4669 28.533 22.6669 28.533C25.8669 28.533 28.5335 25.8664 28.5335 22.6664C28.5335 19.4664 25.8669 16.7997 22.6669 16.7997Z" fill="#75817C"/>
<path d="M25.4671 26.2661C25.2005 26.2661 25.0671 26.1328 24.9338 25.9995L19.3338 20.3995C19.0671 20.1328 19.0671 19.5995 19.3338 19.3328C19.6005 19.0661 20.1338 19.0661 20.4005 19.3328L26.0005 24.9328C26.2671 25.1995 26.2671 25.7328 26.0005 25.9995C25.8671 26.2661 25.7338 26.2661 25.4671 26.2661Z" fill="#75817C"/>
<path d="M19.8671 26.2661C19.6005 26.2661 19.4671 26.1328 19.3338 25.9995C19.0671 25.7328 19.0671 25.1995 19.3338 24.9328L24.9338 19.3328C25.2005 19.0661 25.7338 19.0661 26.0005 19.3328C26.2671 19.5995 26.2671 20.1328 26.0005 20.3995L20.4005 25.9995C20.2671 26.2661 20.0005 26.2661 19.8671 26.2661Z" fill="#75817C"/>
</svg>
