<svg width="20" height="20" viewBox="0 0 20 20" fill="none" xmlns="http://www.w3.org/2000/svg">
<path d="M13.75 7.19257C13.4083 7.19257 13.125 6.90923 13.125 6.56757V5.41757C13.125 4.54257 12.75 3.69257 12.1 3.1009C11.4417 2.5009 10.5917 2.2259 9.69167 2.30923C8.19167 2.4509 6.875 3.98423 6.875 5.58423V6.39257C6.875 6.73423 6.59167 7.01757 6.25 7.01757C5.90833 7.01757 5.625 6.73423 5.625 6.39257V5.5759C5.625 3.33423 7.43333 1.26757 9.575 1.05923C10.825 0.942567 12.025 1.33423 12.9417 2.1759C13.85 3.0009 14.375 4.18423 14.375 5.41757V6.56757C14.375 6.90923 14.0917 7.19257 13.75 7.19257Z" fill="currentColor"/>
<path d="M12.4998 18.9577H7.49985C3.64985 18.9577 2.93318 17.166 2.74985 15.4243L2.12485 10.4327C2.03318 9.53268 1.99985 8.24102 2.87485 7.27435C3.62485 6.44102 4.86652 6.04102 6.66652 6.04102H13.3332C15.1415 6.04102 16.3832 6.44935 17.1248 7.27435C17.9915 8.24102 17.9665 9.53268 17.8748 10.416L17.2498 15.4243C17.0665 17.166 16.3498 18.9577 12.4998 18.9577ZM6.66652 7.29102C5.25818 7.29102 4.29152 7.56602 3.79985 8.11602C3.39152 8.56602 3.25818 9.25768 3.36652 10.291L3.99152 15.2827C4.13318 16.616 4.49985 17.716 7.49985 17.716H12.4998C15.4998 17.716 15.8665 16.6243 16.0082 15.2993L16.6332 10.291C16.7415 9.27435 16.6082 8.58268 16.1998 8.12435C15.7082 7.56602 14.7415 7.29102 13.3332 7.29102H6.66652Z" fill="currentColor"/>
<path d="M12.8505 10.9577C12.3838 10.9577 12.0088 10.5827 12.0088 10.1243C12.0088 9.66602 12.3838 9.29102 12.8421 9.29102C13.3005 9.29102 13.6755 9.66602 13.6755 10.1243C13.6755 10.5827 13.3088 10.9577 12.8505 10.9577Z" fill="currentColor"/>
<path d="M7.01647 10.9577C6.5498 10.9577 6.1748 10.5827 6.1748 10.1243C6.1748 9.66602 6.5498 9.29102 7.00814 9.29102C7.46647 9.29102 7.84147 9.66602 7.84147 10.1243C7.84147 10.5827 7.4748 10.9577 7.01647 10.9577Z" fill="currentColor"/>
</svg>
