<svg width="20" height="20" viewBox="0 0 20 20" fill="none" xmlns="http://www.w3.org/2000/svg">
<path fill-rule="evenodd" clip-rule="evenodd" d="M15.1665 2C14.786 2 14.4775 2.29496 14.4775 2.65884V16.1533C14.4775 16.7055 14.9253 17.1533 15.4775 17.1533H17.7894C18.3417 17.1533 18.7894 16.7055 18.7894 16.1533V2.65884C18.7894 2.29496 18.481 2 18.1005 2H15.1665Z" stroke="currentColor" stroke-width="1.12"/>
<path d="M8.09961 5.65884C8.09961 5.29496 8.40807 5 8.78859 5H11.7811C12.1616 5 12.4701 5.29496 12.4701 5.65884V16.2983C12.4701 16.8506 12.0224 17.2983 11.4701 17.2983H9.09961C8.54732 17.2983 8.09961 16.8506 8.09961 16.2983V5.65884Z" stroke="currentColor" stroke-width="1.12"/>
<path d="M2.1001 7.68359C1.71957 7.68359 1.41112 7.97856 1.41112 8.34243V16.3465C1.41112 16.8988 1.85883 17.3465 2.41112 17.3465H4.92302C5.47531 17.3465 5.92302 16.8988 5.92302 16.3465V8.34243C5.92302 7.97856 5.61456 7.68359 5.23404 7.68359H2.1001Z" stroke="currentColor" stroke-width="1.12"/>
</svg>
