<svg width="20" height="20" viewBox="0 0 20 20" fill="none" xmlns="http://www.w3.org/2000/svg">
<path d="M19.4876 6.34585C19.4227 4.96891 18.8305 3.66971 17.8339 2.71741C16.8372 1.7651 15.5124 1.23269 14.134 1.23047H5.86604C4.44335 1.23202 3.07938 1.79786 2.07339 2.80385C1.06739 3.80985 0.501547 5.17382 0.5 6.59651V13.4029C0.501547 14.8256 1.06739 16.1896 2.07339 17.1955C3.07938 18.2015 4.44335 18.7674 5.86604 18.7689H14.134C15.5124 18.7667 16.8372 18.2343 17.8339 17.282C18.8305 16.3297 19.4227 15.0305 19.4876 13.6535H19.5V6.34585H19.4876ZM14.134 17.3074H5.86604C4.83086 17.3062 3.83841 16.8945 3.10642 16.1625C2.37444 15.4305 1.9627 14.4381 1.96154 13.4029V6.59651C1.9627 5.56133 2.37444 4.56887 3.10642 3.83689C3.83841 3.10491 4.83086 2.69317 5.86604 2.69201H14.134C15.1236 2.69472 16.0751 3.07381 16.7955 3.75238C17.5159 4.43094 17.9511 5.35815 18.0129 6.34585H12.9231C11.954 6.34585 11.0246 6.73081 10.3394 7.41604C9.65419 8.10127 9.26923 9.03064 9.26923 9.9997C9.26923 10.9688 9.65419 11.8981 10.3394 12.5834C11.0246 13.2686 11.954 13.6535 12.9231 13.6535H18.0129C17.9511 14.6412 17.5159 15.5685 16.7955 16.247C16.0751 16.9256 15.1236 17.3047 14.134 17.3074ZM18.0385 12.192H12.9231C12.3416 12.192 11.784 11.961 11.3729 11.5499C10.9617 11.1388 10.7308 10.5811 10.7308 9.9997C10.7308 9.41826 10.9617 8.86064 11.3729 8.4495C11.784 8.03837 12.3416 7.80739 12.9231 7.80739H18.0385V12.192Z" fill="currentColor"/>
<path d="M12.9232 10.7311C13.3267 10.7311 13.6539 10.4039 13.6539 10.0003C13.6539 9.59671 13.3267 9.26953 12.9232 9.26953C12.5196 9.26953 12.1924 9.59671 12.1924 10.0003C12.1924 10.4039 12.5196 10.7311 12.9232 10.7311Z" fill="currentColor"/>
</svg>
