<svg width="30" height="30" viewBox="0 0 30 30" fill="none" xmlns="http://www.w3.org/2000/svg">
<g clip-path="url(#clip0_35_6401)">
<path d="M30 14.5625V14.35C29.9935 14.1886 29.9248 14.036 29.8083 13.9241C29.6918 13.8123 29.5365 13.7499 29.375 13.75H15C14.6685 13.75 14.3505 13.8817 14.1161 14.1161C13.8817 14.3505 13.75 14.6685 13.75 15C13.75 15.1658 13.6841 15.3247 13.5669 15.4419C13.4497 15.5592 13.2907 15.625 13.125 15.625C12.9592 15.625 12.8003 15.5592 12.683 15.4419C12.5658 15.3247 12.5 15.1658 12.5 15C12.5 14.337 12.7634 13.7011 13.2322 13.2322C13.7011 12.7634 14.3369 12.5 15 12.5H18.05C18.1749 12.5008 18.2972 12.4641 18.401 12.3947C18.5049 12.3252 18.5856 12.2263 18.6327 12.1106C18.6798 11.9949 18.6911 11.8677 18.6652 11.7455C18.6393 11.6233 18.5774 11.5117 18.4875 11.425C17.7022 10.6543 16.6845 10.1642 15.5923 10.0306C14.5001 9.89707 13.3944 10.1275 12.4465 10.6862C11.4986 11.245 10.7614 12.1008 10.3493 13.121C9.93722 14.1413 9.87317 15.269 10.1671 16.3293C10.461 17.3897 11.0965 18.3234 11.9751 18.9859C12.8536 19.6484 13.9262 20.0025 15.0265 19.9935C16.1267 19.9845 17.1933 19.6127 18.0609 18.9359C18.9284 18.2591 19.5485 17.315 19.825 16.25H22.3875C22.1155 17.8593 21.3259 19.336 20.1385 20.4559C18.9512 21.5758 17.431 22.2778 15.8085 22.4554C14.186 22.633 12.5499 22.2765 11.1484 21.44C9.74696 20.6035 8.65661 19.3326 8.04286 17.8202C7.42911 16.3079 7.32546 14.6366 7.74764 13.06C8.16983 11.4834 9.0948 10.0875 10.3822 9.08423C11.6696 8.08095 13.2491 7.52502 14.8811 7.50079C16.5131 7.47657 18.1084 7.98537 19.425 8.95C19.5382 9.04683 19.6823 9.10004 19.8312 9.10004C19.9802 9.10004 20.1243 9.04683 20.2375 8.95L24.6875 4.5C24.7519 4.44142 24.8034 4.37002 24.8387 4.29037C24.8739 4.21072 24.8921 4.12459 24.8921 4.0375C24.8921 3.9504 24.8739 3.86427 24.8387 3.78463C24.8034 3.70498 24.7519 3.63358 24.6875 3.575C22.078 1.36761 18.7929 0.117596 15.3761 0.0319088C11.9592 -0.0537787 8.61561 1.03 5.89875 3.10381C3.18189 5.17762 1.25474 8.1171 0.43635 11.4356C-0.382036 14.754 -0.0425749 18.2525 1.39853 21.3517C2.83964 24.451 5.29597 26.9651 8.36085 28.4779C11.4257 29.9907 14.9153 30.4114 18.2519 29.6705C21.5886 28.9295 24.5721 27.0712 26.7085 24.4033C28.8449 21.7354 30.0062 18.4179 30 15V14.5625ZM15 2.5C15.2472 2.5 15.4889 2.57331 15.6945 2.71066C15.9 2.84801 16.0602 3.04324 16.1548 3.27164C16.2494 3.50005 16.2742 3.75138 16.226 3.99386C16.1777 4.23634 16.0587 4.45907 15.8839 4.63388C15.7091 4.8087 15.4863 4.92775 15.2439 4.97598C15.0014 5.02421 14.75 4.99946 14.5216 4.90485C14.2932 4.81024 14.098 4.65002 13.9607 4.44446C13.8233 4.2389 13.75 3.99722 13.75 3.75C13.75 3.41848 13.8817 3.10053 14.1161 2.86611C14.3505 2.63169 14.6685 2.5 15 2.5ZM6.16249 6.1625C6.39669 5.92968 6.71351 5.79901 7.04374 5.79901C7.37397 5.79901 7.69079 5.92968 7.92499 6.1625C8.10055 6.33702 8.22034 6.55973 8.26917 6.80241C8.31801 7.04509 8.29369 7.2968 8.1993 7.52564C8.10491 7.75448 7.9447 7.95015 7.73897 8.08783C7.53325 8.22551 7.29128 8.29901 7.04374 8.29901C6.7962 8.29901 6.55422 8.22551 6.3485 8.08783C6.14278 7.95015 5.98257 7.75448 5.88818 7.52564C5.79379 7.2968 5.76947 7.04509 5.8183 6.80241C5.86714 6.55973 5.98693 6.33702 6.16249 6.1625ZM3.74999 16.25C3.50276 16.25 3.26109 16.1767 3.05553 16.0393C2.84996 15.902 2.68975 15.7068 2.59514 15.4784C2.50053 15.2499 2.47577 14.9986 2.52401 14.7561C2.57224 14.5137 2.69129 14.2909 2.8661 14.1161C3.04092 13.9413 3.26365 13.8222 3.50612 13.774C3.7486 13.7258 3.99993 13.7505 4.22834 13.8451C4.45675 13.9398 4.65197 14.1 4.78932 14.3055C4.92668 14.5111 4.99999 14.7528 4.99999 15C4.99999 15.3315 4.86829 15.6495 4.63387 15.8839C4.39945 16.1183 4.08151 16.25 3.74999 16.25ZM7.92499 23.8375C7.7214 24.0428 7.45295 24.1711 7.16537 24.2007C6.87778 24.2302 6.58883 24.1592 6.34773 23.9997C6.10663 23.8401 5.92828 23.602 5.84306 23.3257C5.75783 23.0495 5.771 22.7522 5.88032 22.4846C5.98963 22.2169 6.18834 21.9955 6.4426 21.8579C6.69686 21.7203 6.99096 21.6751 7.2748 21.73C7.55865 21.7848 7.8147 21.9364 7.99934 22.1589C8.18399 22.3813 8.28582 22.6609 8.28749 22.95C8.28844 23.1145 8.25691 23.2776 8.1947 23.4299C8.1325 23.5822 8.04084 23.7207 7.92499 23.8375ZM15 27.5C14.7528 27.5 14.5111 27.4267 14.3055 27.2893C14.1 27.152 13.9397 26.9568 13.8451 26.7284C13.7505 26.4999 13.7258 26.2486 13.774 26.0061C13.8222 25.7637 13.9413 25.5409 14.1161 25.3661C14.2909 25.1913 14.5136 25.0723 14.7561 25.024C14.9986 24.9758 15.2499 25.0005 15.4783 25.0952C15.7068 25.1898 15.902 25.35 16.0393 25.5555C16.1767 25.7611 16.25 26.0028 16.25 26.25C16.25 26.5815 16.1183 26.8995 15.8839 27.1339C15.6495 27.3683 15.3315 27.5 15 27.5ZM23.8375 23.8375C23.6339 24.0428 23.3655 24.1711 23.0779 24.2007C22.7903 24.2302 22.5013 24.1592 22.2602 23.9997C22.0191 23.8401 21.8408 23.602 21.7556 23.3257C21.6703 23.0495 21.6835 22.7522 21.7928 22.4846C21.9021 22.2169 22.1008 21.9955 22.3551 21.8579C22.6094 21.7203 22.9035 21.6751 23.1873 21.73C23.4712 21.7848 23.7272 21.9364 23.9118 22.1589C24.0965 22.3813 24.1983 22.6609 24.2 22.95C24.2009 23.1145 24.1694 23.2776 24.1072 23.4299C24.045 23.5822 23.9533 23.7207 23.8375 23.8375Z" fill="white"/>
<path d="M21.0499 10.5875C21.3882 11.0656 21.6692 11.5816 21.8874 12.125C21.9386 12.2429 22.0248 12.3422 22.1344 12.4093C22.244 12.4764 22.3717 12.5081 22.4999 12.5H29.0499C29.1439 12.5004 29.2368 12.4796 29.3217 12.4392C29.4065 12.3988 29.4811 12.3397 29.54 12.2664C29.5989 12.1931 29.6404 12.1075 29.6616 12.016C29.6828 11.9244 29.6831 11.8292 29.6624 11.7375C29.1386 9.39075 28.0582 7.20432 26.5124 5.36251C26.4571 5.29587 26.3885 5.24146 26.3111 5.20273C26.2336 5.164 26.1489 5.14179 26.0624 5.13751C25.9765 5.13455 25.8909 5.14971 25.8112 5.18202C25.7315 5.21432 25.6595 5.26304 25.5999 5.32501L21.1124 9.77501C21.0065 9.88057 20.942 10.0206 20.9306 10.1697C20.9191 10.3187 20.9614 10.467 21.0499 10.5875Z" fill="white"/>
</g>
<defs>
<clipPath id="clip0_35_6401">
<rect width="30" height="30" fill="white"/>
</clipPath>
</defs>
</svg>
