<svg width="30" height="30" viewBox="0 0 30 30" fill="none" xmlns="http://www.w3.org/2000/svg">
<g clip-path="url(#clip0_35_4416)">
<path d="M30 14.5624V14.3499C29.9935 14.1885 29.9248 14.0359 29.8083 13.924C29.6918 13.8122 29.5365 13.7498 29.375 13.7499H15C14.6685 13.7499 14.3505 13.8816 14.1161 14.116C13.8817 14.3504 13.75 14.6684 13.75 14.9999C13.75 15.1657 13.6841 15.3246 13.5669 15.4419C13.4497 15.5591 13.2907 15.6249 13.125 15.6249C12.9592 15.6249 12.8003 15.5591 12.683 15.4419C12.5658 15.3246 12.5 15.1657 12.5 14.9999C12.5 14.3369 12.7634 13.701 13.2322 13.2321C13.7011 12.7633 14.3369 12.4999 15 12.4999H18.05C18.1749 12.5007 18.2972 12.464 18.401 12.3946C18.5049 12.3252 18.5856 12.2262 18.6327 12.1105C18.6798 11.9948 18.6911 11.8677 18.6652 11.7455C18.6393 11.6232 18.5774 11.5116 18.4875 11.4249C17.7022 10.6542 16.6845 10.1641 15.5923 10.0305C14.5001 9.89698 13.3944 10.1274 12.4465 10.6862C11.4986 11.2449 10.7614 12.1007 10.3493 13.1209C9.93722 14.1412 9.87317 15.2689 10.1671 16.3292C10.461 17.3896 11.0965 18.3233 11.9751 18.9858C12.8536 19.6483 13.9262 20.0024 15.0265 19.9934C16.1267 19.9844 17.1933 19.6126 18.0609 18.9358C18.9284 18.259 19.5485 17.3149 19.825 16.2499H22.3875C22.1155 17.8592 21.3259 19.3359 20.1385 20.4558C18.9512 21.5757 17.431 22.2777 15.8085 22.4553C14.186 22.6329 12.5499 22.2764 11.1484 21.4399C9.74696 20.6034 8.65661 19.3325 8.04286 17.8202C7.42911 16.3078 7.32546 14.6365 7.74764 13.0599C8.16983 11.4833 9.0948 10.0874 10.3822 9.08414C11.6696 8.08086 13.2491 7.52493 14.8811 7.5007C16.5131 7.47648 18.1084 7.98528 19.425 8.94991C19.5382 9.04674 19.6823 9.09995 19.8312 9.09995C19.9802 9.09995 20.1243 9.04674 20.2375 8.94991L24.6875 4.49991C24.7519 4.44133 24.8034 4.36992 24.8387 4.29028C24.8739 4.21063 24.8921 4.1245 24.8921 4.03741C24.8921 3.95031 24.8739 3.86418 24.8387 3.78453C24.8034 3.70489 24.7519 3.63349 24.6875 3.57491C22.078 1.36752 18.7929 0.117505 15.3761 0.0318173C11.9592 -0.0538702 8.61561 1.02991 5.89875 3.10372C3.18189 5.17753 1.25474 8.11701 0.43635 11.4355C-0.382036 14.754 -0.0425749 18.2524 1.39853 21.3516C2.83964 24.4509 5.29597 26.965 8.36085 28.4778C11.4257 29.9906 14.9153 30.4114 18.2519 29.6704C21.5886 28.9294 24.5721 27.0711 26.7085 24.4032C28.8449 21.7353 30.0062 18.4178 30 14.9999V14.5624ZM15 2.49991C15.2472 2.49991 15.4889 2.57322 15.6945 2.71057C15.9 2.84792 16.0602 3.04314 16.1548 3.27155C16.2494 3.49996 16.2742 3.75129 16.226 3.99377C16.1777 4.23625 16.0587 4.45897 15.8839 4.63379C15.7091 4.80861 15.4863 4.92766 15.2439 4.97589C15.0014 5.02412 14.75 4.99937 14.5216 4.90476C14.2932 4.81015 14.098 4.64993 13.9607 4.44437C13.8233 4.23881 13.75 3.99713 13.75 3.74991C13.75 3.41839 13.8817 3.10044 14.1161 2.86602C14.3505 2.6316 14.6685 2.49991 15 2.49991ZM6.16249 6.16241C6.39669 5.92959 6.71351 5.79892 7.04374 5.79892C7.37397 5.79892 7.69079 5.92959 7.92499 6.16241C8.10055 6.33692 8.22034 6.55964 8.26917 6.80232C8.31801 7.045 8.29369 7.29671 8.1993 7.52555C8.10491 7.75439 7.9447 7.95006 7.73897 8.08774C7.53325 8.22542 7.29128 8.29892 7.04374 8.29892C6.7962 8.29892 6.55422 8.22542 6.3485 8.08774C6.14278 7.95006 5.98257 7.75439 5.88818 7.52555C5.79379 7.29671 5.76947 7.045 5.8183 6.80232C5.86714 6.55964 5.98693 6.33692 6.16249 6.16241ZM3.74999 16.2499C3.50276 16.2499 3.26109 16.1766 3.05553 16.0392C2.84996 15.9019 2.68975 15.7067 2.59514 15.4783C2.50053 15.2499 2.47577 14.9985 2.52401 14.756C2.57224 14.5136 2.69129 14.2908 2.8661 14.116C3.04092 13.9412 3.26365 13.8222 3.50612 13.7739C3.7486 13.7257 3.99993 13.7504 4.22834 13.8451C4.45675 13.9397 4.65197 14.0999 4.78932 14.3054C4.92668 14.511 4.99999 14.7527 4.99999 14.9999C4.99999 15.3314 4.86829 15.6494 4.63387 15.8838C4.39945 16.1182 4.08151 16.2499 3.74999 16.2499ZM7.92499 23.8374C7.7214 24.0427 7.45295 24.171 7.16537 24.2006C6.87778 24.2302 6.58883 24.1591 6.34773 23.9996C6.10663 23.8401 5.92828 23.6019 5.84306 23.3256C5.75783 23.0494 5.771 22.7521 5.88032 22.4845C5.98963 22.2168 6.18834 21.9954 6.4426 21.8578C6.69686 21.7202 6.99096 21.675 7.2748 21.7299C7.55865 21.7847 7.8147 21.9363 7.99934 22.1588C8.18399 22.3812 8.28582 22.6608 8.28749 22.9499C8.28844 23.1144 8.25691 23.2775 8.1947 23.4298C8.1325 23.5821 8.04084 23.7206 7.92499 23.8374ZM15 27.4999C14.7528 27.4999 14.5111 27.4266 14.3055 27.2892C14.1 27.1519 13.9397 26.9567 13.8451 26.7283C13.7505 26.4999 13.7258 26.2485 13.774 26.006C13.8222 25.7636 13.9413 25.5408 14.1161 25.366C14.2909 25.1912 14.5136 25.0722 14.7561 25.0239C14.9986 24.9757 15.2499 25.0005 15.4783 25.0951C15.7068 25.1897 15.902 25.3499 16.0393 25.5554C16.1767 25.761 16.25 26.0027 16.25 26.2499C16.25 26.5814 16.1183 26.8994 15.8839 27.1338C15.6495 27.3682 15.3315 27.4999 15 27.4999ZM23.8375 23.8374C23.6339 24.0427 23.3655 24.171 23.0779 24.2006C22.7903 24.2302 22.5013 24.1591 22.2602 23.9996C22.0191 23.8401 21.8408 23.6019 21.7556 23.3256C21.6703 23.0494 21.6835 22.7521 21.7928 22.4845C21.9021 22.2168 22.1008 21.9954 22.3551 21.8578C22.6094 21.7202 22.9035 21.675 23.1873 21.7299C23.4712 21.7847 23.7272 21.9363 23.9118 22.1588C24.0965 22.3812 24.1983 22.6608 24.2 22.9499C24.2009 23.1144 24.1694 23.2775 24.1072 23.4298C24.045 23.5821 23.9533 23.7206 23.8375 23.8374Z" fill="#006553"/>
<path d="M21.0499 10.5873C21.3882 11.0654 21.6692 11.5814 21.8874 12.1248C21.9386 12.2427 22.0248 12.342 22.1344 12.4091C22.244 12.4762 22.3717 12.5079 22.4999 12.4998H29.0499C29.1439 12.5002 29.2368 12.4795 29.3217 12.439C29.4065 12.3986 29.4811 12.3395 29.54 12.2662C29.5989 12.193 29.6404 12.1073 29.6616 12.0158C29.6828 11.9242 29.6831 11.829 29.6624 11.7373C29.1386 9.39057 28.0582 7.20414 26.5124 5.36233C26.4571 5.29569 26.3885 5.24128 26.3111 5.20255C26.2336 5.16381 26.1489 5.1416 26.0624 5.13733C25.9765 5.13437 25.8909 5.14953 25.8112 5.18183C25.7315 5.21414 25.6595 5.26286 25.5999 5.32483L21.1124 9.77483C21.0065 9.88039 20.942 10.0204 20.9306 10.1695C20.9191 10.3186 20.9614 10.4668 21.0499 10.5873Z" fill="#006553"/>
</g>
<defs>
<clipPath id="clip0_35_4416">
<rect width="30" height="30" fill="white"/>
</clipPath>
</defs>
</svg>
