<svg width="24" height="24" viewBox="0 0 24 24" fill="none" xmlns="http://www.w3.org/2000/svg">
<circle cx="11.5" cy="11.5" r="7.5" fill="#FCFDFF"/>
<path d="M12 2C6.489 2 2 6.489 2 12C2 17.511 6.489 22 12 22C17.511 22 22 17.511 22 12C22 6.489 17.511 2 12 2ZM9.707 8.293L12 10.586L14.293 8.293C14.4818 8.10794 14.7356 8.00429 15 8.00429C15.2644 8.00429 15.5182 8.10794 15.707 8.293C15.8945 8.48053 15.9998 8.73484 15.9998 9C15.9998 9.26516 15.8945 9.51947 15.707 9.707L13.414 12L15.707 14.293C15.8892 14.4816 15.9899 14.7342 15.9877 14.9964C15.9854 15.2586 15.8802 15.5094 15.6948 15.6948C15.5094 15.8802 15.2586 15.9854 14.9964 15.9877C14.7342 15.9899 14.4816 15.8892 14.293 15.707L12 13.414L9.707 15.707C9.5184 15.8892 9.2658 15.9899 9.0036 15.9877C8.7414 15.9854 8.49058 15.8802 8.30518 15.6948C8.11977 15.5094 8.01461 15.2586 8.01233 14.9964C8.01005 14.7342 8.11084 14.4816 8.293 14.293L10.586 12L8.293 9.707C8.10553 9.51947 8.00021 9.26516 8.00021 9C8.00021 8.73484 8.10553 8.48053 8.293 8.293C8.715 7.898 9.27 7.877 9.707 8.293Z" fill="#006553"/>
</svg>
