<svg width="44" height="44" viewBox="0 0 44 44" fill="none" xmlns="http://www.w3.org/2000/svg">
<path d="M37.1974 25.2549C37.731 22.7732 37.6494 20.1986 36.9597 17.7557C36.2701 15.3127 34.9933 13.0755 33.2406 11.2392C31.488 9.40296 29.3127 8.02329 26.9045 7.22056C24.4964 6.41782 21.9284 6.21638 19.4245 6.63381" stroke="#75817C" stroke-width="3"/>
<path d="M17.3561 7.13465C14.9328 7.89043 12.7311 9.22755 10.9431 11.0294C9.15513 12.8313 7.83506 15.0432 7.09804 17.4723C6.36102 19.9014 6.22941 22.4739 6.7147 24.9656C7.19999 27.4572 8.28744 29.7923 9.88223 31.7672" stroke="#FF263F" stroke-width="3"/>
<path d="M11.3923 33.3864C13.2487 35.1177 15.5005 36.3686 17.9512 37.03C20.402 37.6914 22.9774 37.7433 25.4528 37.181C27.9282 36.6187 30.2284 35.4594 32.153 33.8042C34.0776 32.149 35.568 30.0481 36.4943 27.6847" stroke="#75817C" stroke-width="3"/>
<path d="M28.197 14.5653C27.2738 14.4774 26.3665 14.269 25.5013 13.9455C24.4568 13.556 23.4844 13.0047 22.6086 12.3066C22.096 11.8978 21.3794 11.8978 20.8668 12.3066C19.992 13.0038 19.0187 13.5551 17.9741 13.9455C17.109 14.269 16.2016 14.4774 15.2784 14.5653C14.5495 14.6348 14 15.237 14 15.965V22.9188C14 25.8678 15.6388 28.5194 18.2774 29.839L21.1084 31.2546C21.3054 31.353 21.5216 31.4014 21.7371 31.4014C21.9533 31.4014 22.1688 31.3522 22.3666 31.2546L25.1976 29.839C27.8353 28.5193 29.475 25.8675 29.475 22.9188L29.4759 15.965C29.4759 15.2361 28.9264 14.6348 28.1975 14.5653H28.197ZM25.0529 20.3417L21.5361 23.9218C21.4042 24.0563 21.2231 24.1319 21.0349 24.1319H21.0331C20.8432 24.1319 20.6621 24.0545 20.5311 23.9191L18.421 21.7458C18.1502 21.467 18.1572 21.0222 18.4359 20.7514C18.7147 20.4805 19.1604 20.4867 19.4303 20.7663L21.0393 22.4227L24.0515 19.357C24.324 19.0791 24.7681 19.0756 25.0459 19.3482C25.3229 19.6207 25.3272 20.0656 25.0547 20.3426L25.0529 20.3417Z" fill="#FF263F"/>
</svg>
