<svg width="50" height="50" viewBox="0 0 50 50" fill="none" xmlns="http://www.w3.org/2000/svg">
<rect width="50" height="50" rx="10" fill="#006553"/>
<g clip-path="url(#clip0_549_31538)">
<path fill-rule="evenodd" clip-rule="evenodd" d="M11.6818 20.4778C11.0179 19.3279 11.4119 17.8576 12.5618 17.1937C12.8774 17.0115 13.2302 16.9034 13.5937 16.8777L34.4412 15.3988C35.5158 15.3225 36.5397 15.8663 37.0784 16.7992C37.617 17.7322 37.576 18.8908 36.9726 19.7833L25.2681 37.0984C25.064 37.4002 24.794 37.6518 24.4784 37.834C23.3286 38.4979 21.8582 38.1039 21.1943 36.954C21.0899 36.7731 20.9717 36.597 20.9244 36.3907L19.28 29.2091C19.1953 28.8393 19.3102 28.4522 19.583 28.1885L22.8899 24.9909L18.4673 26.256C18.1026 26.3604 17.7098 26.2664 17.4319 26.0082L12.0347 20.9932C11.8797 20.8492 11.7862 20.6587 11.6818 20.4778ZM13.6451 19.0701C13.5315 19.1357 13.4926 19.2809 13.5582 19.3945L13.6289 19.5168L18.459 24.0049L26.4603 21.7161C26.9382 21.5793 27.4478 21.7854 27.6964 22.2159C27.945 22.6464 27.8687 23.1909 27.5112 23.5364L21.5284 29.3212L23.0001 35.7483L23.0707 35.8707C23.1363 35.9843 23.2815 36.0232 23.3951 35.9576C23.4263 35.9396 23.4529 35.9147 23.4731 35.8849L35.1776 18.5699C35.3166 18.3643 35.3261 18.0975 35.202 17.8826C35.0779 17.6676 34.8421 17.5424 34.5945 17.56L13.747 19.0389C13.7111 19.0414 13.6763 19.0521 13.6451 19.0701Z" fill="white"/>
</g>
<defs>
<clipPath id="clip0_549_31538">
<rect width="26" height="26" fill="white" transform="translate(9 18) rotate(-30)"/>
</clipPath>
</defs>
</svg>
