<svg width="25" height="24" viewBox="0 0 25 24" fill="none" xmlns="http://www.w3.org/2000/svg">
<g clip-path="url(#clip0_367_5668)">
<path d="M15.3644 4.20333C14.9744 3.81033 14.9785 3.17733 15.3734 2.78933L17.5884 0.612329C18.4095 -0.201671 19.7472 -0.202671 20.5733 0.616329L22.8114 2.78433C23.2094 3.16933 23.2174 3.80233 22.8315 4.19833C22.6345 4.39933 22.3732 4.50033 22.1109 4.50033C21.8576 4.50033 21.6054 4.40633 21.4104 4.21633L20.1009 2.94833V9.00033C20.1009 9.55233 19.6517 10.0003 19.0959 10.0003C18.5402 10.0003 18.0909 9.55233 18.0909 9.00033V2.93033L16.7874 4.21133C16.3915 4.59933 15.7573 4.59633 15.3654 4.20233L15.3644 4.20333ZM24.1199 11.0003V21.0003C24.1199 22.6543 22.7672 24.0003 21.1049 24.0003H5.02498C2.2542 24.0003 0 21.7573 0 19.0003V9.00033C0 8.11333 0.233159 7.27933 0.642192 6.55633C0.662292 6.51633 0.684402 6.47733 0.709527 6.44033C1.58789 4.98033 3.19388 4.00033 5.02498 4.00033H12.0599C12.6157 4.00033 13.0649 4.44833 13.0649 5.00033C13.0649 5.55233 12.6157 6.00033 12.0599 6.00033H5.02498C4.13355 6.00033 3.33056 6.38733 2.77881 7.00133C3.34462 7.62833 4.16169 8.00033 5.02498 8.00033H16.0799V9.00033C16.0799 10.6543 17.4327 12.0003 19.0949 12.0003C20.7572 12.0003 22.1099 10.6543 22.1099 9.00033V8.18433C23.2767 8.59833 24.1199 9.69833 24.1199 11.0003ZM20.0999 16.0003C20.0999 15.1723 19.4246 14.5003 18.5924 14.5003C17.7603 14.5003 17.0849 15.1723 17.0849 16.0003C17.0849 16.8283 17.7603 17.5003 18.5924 17.5003C19.4246 17.5003 20.0999 16.8283 20.0999 16.0003Z" fill="#75817C"/>
<path d="M15.3645 4.20333C14.9746 3.81033 14.9786 3.17733 15.3736 2.78933L17.5886 0.612329C18.4097 -0.201671 19.7473 -0.202671 20.5734 0.616329L22.8116 2.78433C23.2095 3.16933 23.2176 3.80233 22.8317 4.19833C22.6347 4.39933 22.3734 4.50033 22.1111 4.50033C21.8578 4.50033 21.6056 4.40633 21.4106 4.21633L20.1011 2.94833V9.00033C20.1011 9.55233 19.6519 10.0003 19.0961 10.0003C18.5403 10.0003 18.0911 9.55233 18.0911 9.00033V2.93033L16.7876 4.21133C16.3916 4.59933 15.7575 4.59633 15.3655 4.20233L15.3645 4.20333Z" fill="#3DFFDC"/>
</g>
<defs>
<clipPath id="clip0_367_5668">
<rect width="24.1199" height="24" fill="white"/>
</clipPath>
</defs>
</svg>
