<svg width="24" height="24" viewBox="0 0 24 24" fill="none" xmlns="http://www.w3.org/2000/svg">
<g clip-path="url(#clip0_21_206745)">
<path d="M11.6522 18.9783C11.6526 17.792 11.9726 16.6278 12.5787 15.6081C13.1848 14.5884 14.0545 13.7509 15.0964 13.1837C16.1382 12.6165 17.3137 12.3405 18.4991 12.3849C19.6845 12.4293 20.836 12.7923 21.8325 13.4358C21.8396 12.9469 21.8433 12.4252 21.8433 11.8622C21.8433 8.96766 21.7449 7.16109 21.5504 5.28984H21.578C21.4704 4.24712 21.0722 3.25556 20.4287 2.42808C19.7852 1.60059 18.9223 0.970436 17.9382 0.609375C17.8861 0.589688 17.8341 0.570938 17.7816 0.553125C17.3927 0.422396 16.9906 0.334838 16.5825 0.292031L16.5436 0.287812C14.9869 0.127969 14.7371 0 11.4544 0C8.17176 0 7.64066 0.127969 6.08535 0.290156L6.04645 0.294375C5.6181 0.339359 5.19639 0.433736 4.78973 0.575625V0.554531C3.77574 0.899286 2.88187 1.52754 2.21407 2.36483C1.54626 3.20212 1.13253 4.21333 1.02191 5.27859C0.826914 7.15359 0.727539 8.96203 0.727539 11.8622C0.727539 14.7623 0.826914 16.5708 1.02191 18.4458C1.15507 19.7253 1.72422 20.92 2.63388 21.8296C3.54354 22.7392 4.73836 23.3082 6.01785 23.4412L6.05676 23.4455C7.61348 23.6077 7.86285 23.7356 11.1455 23.7356C12.233 23.7356 13.0205 23.7216 13.6388 23.6967C13.0092 23.0829 12.509 22.3491 12.1677 21.5386C11.8265 20.7282 11.6512 19.8576 11.6522 18.9783ZM6.16785 6.24141H16.4011C16.6973 6.24141 16.9813 6.35904 17.1907 6.56844C17.4001 6.77784 17.5177 7.06184 17.5177 7.35797C17.5177 7.6541 17.4001 7.9381 17.1907 8.1475C16.9813 8.35689 16.6973 8.47453 16.4011 8.47453H6.1702C5.87406 8.47453 5.59006 8.35689 5.38067 8.1475C5.17127 7.9381 5.05363 7.6541 5.05363 7.35797C5.05363 7.06184 5.17127 6.77784 5.38067 6.56844C5.59006 6.35904 5.87406 6.24141 6.1702 6.24141H6.16785ZM6.16785 13.2525C5.87562 13.2465 5.59738 13.1262 5.39282 12.9174C5.18827 12.7086 5.0737 12.428 5.0737 12.1357C5.0737 11.8434 5.18827 11.5628 5.39282 11.354C5.59738 11.1452 5.87562 11.0249 6.16785 11.0189H12.0043C12.1528 11.0159 12.3005 11.0425 12.4387 11.0973C12.5769 11.152 12.7027 11.2338 12.8089 11.3378C12.915 11.4418 12.9994 11.5659 13.0569 11.703C13.1145 11.84 13.1442 11.9871 13.1442 12.1357C13.1442 12.2843 13.1145 12.4314 13.0569 12.5685C12.9994 12.7055 12.915 12.8296 12.8089 12.9336C12.7027 13.0376 12.5769 13.1194 12.4387 13.1742C12.3005 13.2289 12.1528 13.2555 12.0043 13.2525H6.16785Z" fill="white"/>
<path d="M18.2507 13.9565C17.2575 13.9565 16.2866 14.2511 15.4608 14.8029C14.635 15.3546 13.9913 16.1389 13.6113 17.0565C13.2312 17.9741 13.1317 18.9838 13.3255 19.958C13.5193 20.9321 13.9975 21.8269 14.6998 22.5292C15.4021 23.2315 16.2969 23.7097 17.271 23.9035C18.2452 24.0973 19.2549 23.9978 20.1725 23.6177C21.0901 23.2376 21.8743 22.594 22.4261 21.7682C22.9779 20.9424 23.2724 19.9715 23.2724 18.9783C23.2724 17.6464 22.7434 16.3691 21.8016 15.4274C20.8599 14.4856 19.5826 13.9565 18.2507 13.9565ZM20.241 19.7133H18.1509C17.9924 19.7133 17.8404 19.6503 17.7283 19.5382C17.6162 19.4261 17.5532 19.2741 17.5532 19.1156V15.9047C17.5532 15.7462 17.6162 15.5941 17.7283 15.4821C17.8404 15.37 17.9924 15.307 18.1509 15.307C18.3094 15.307 18.4614 15.37 18.5735 15.4821C18.6856 15.5941 18.7485 15.7462 18.7485 15.9047V18.5179H20.241C20.3995 18.5179 20.5516 18.5809 20.6636 18.693C20.7757 18.8051 20.8387 18.9571 20.8387 19.1156C20.8387 19.2741 20.7757 19.4261 20.6636 19.5382C20.5516 19.6503 20.3995 19.7133 20.241 19.7133Z" fill="#3DFFDC"/>
</g>
<defs>
<clipPath id="clip0_21_206745">
<rect width="24" height="24" fill="white"/>
</clipPath>
</defs>
</svg>
