<svg width="24" height="24" viewBox="0 0 24 24" fill="none" xmlns="http://www.w3.org/2000/svg">
<g clip-path="url(#clip0_21_206736)">
<path d="M6.75 0.75H9.75V6.75H6.75V0.75Z" fill="#3DFFDC"/>
<path d="M0.75 19.5C0.750398 20.4944 1.14561 21.448 1.84879 22.1512C2.55196 22.8544 3.50556 23.2496 4.5 23.25H19.5C20.4944 23.2496 21.448 22.8544 22.1512 22.1512C22.8544 21.448 23.2496 20.4944 23.25 19.5V8.25H0.75V19.5ZM15.75 17.25H10.065L11.775 18.975C11.846 19.0427 11.9026 19.1242 11.9413 19.2144C11.9799 19.3047 11.9998 19.4018 11.9998 19.5C11.9998 19.5982 11.9799 19.6953 11.9413 19.7856C11.9026 19.8758 11.846 19.9573 11.775 20.025C11.7073 20.096 11.6258 20.1526 11.5356 20.1913C11.4453 20.2299 11.3482 20.2498 11.25 20.2498C11.1518 20.2498 11.0547 20.2299 10.9644 20.1913C10.8742 20.1526 10.7927 20.096 10.725 20.025L7.725 17.025C7.61656 16.924 7.54237 16.7916 7.51279 16.6464C7.48321 16.5012 7.49971 16.3504 7.56 16.215C7.61607 16.0779 7.71157 15.9605 7.8344 15.8777C7.95723 15.795 8.10188 15.7505 8.25 15.75H15.75C15.9489 15.75 16.1397 15.829 16.2803 15.9697C16.421 16.1103 16.5 16.3011 16.5 16.5C16.5 16.6989 16.421 16.8897 16.2803 17.0303C16.1397 17.171 15.9489 17.25 15.75 17.25ZM8.25 12.75H13.935L12.225 11.025C12.1549 10.9563 12.0991 10.8744 12.0609 10.784C12.0226 10.6936 12.0027 10.5966 12.0022 10.4984C12.0017 10.4003 12.0207 10.303 12.058 10.2123C12.0953 10.1215 12.1503 10.0391 12.2197 9.96967C12.2891 9.90028 12.3715 9.84533 12.4623 9.808C12.553 9.77067 12.6503 9.75171 12.7484 9.75221C12.8466 9.7527 12.9436 9.77265 13.034 9.81089C13.1244 9.84913 13.2063 9.90491 13.275 9.975L16.275 12.975C16.3834 13.076 16.4576 13.2084 16.4872 13.3536C16.5168 13.4988 16.5003 13.6496 16.44 13.785C16.3839 13.9221 16.2884 14.0395 16.1656 14.1223C16.0428 14.205 15.8981 14.2495 15.75 14.25H8.25C8.05109 14.25 7.86032 14.171 7.71967 14.0303C7.57902 13.8897 7.5 13.6989 7.5 13.5C7.5 13.3011 7.57902 13.1103 7.71967 12.9697C7.86032 12.829 8.05109 12.75 8.25 12.75Z" fill="white"/>
<path d="M19.5 0.75H11.25V6.75H23.25V4.5C23.2496 3.50556 22.8544 2.55196 22.1512 1.84879C21.448 1.14561 20.4944 0.750398 19.5 0.75Z" fill="#3DFFDC"/>
<path d="M5.25 0.75H4.5C3.50556 0.750398 2.55196 1.14561 1.84879 1.84879C1.14561 2.55196 0.750398 3.50556 0.75 4.5V6.75H5.25V0.75Z" fill="#3DFFDC"/>
</g>
<defs>
<clipPath id="clip0_21_206736">
<rect width="24" height="24" fill="white"/>
</clipPath>
</defs>
</svg>
