<svg width="20" height="20" viewBox="0 0 20 20" fill="none" xmlns="http://www.w3.org/2000/svg">
<path d="M13.1594 1.66744C13.475 1.68718 13.7185 1.9577 13.7101 2.27923V3.14165C16.2174 3.38489 17.5 4.77064 17.5 7.26205V14.154C17.5 16.9255 15.9203 18.3333 12.8116 18.3333H7.18841C4.07971 18.3333 2.5 16.9255 2.5 14.154V7.26205C2.5 5.60357 3.06522 4.41683 4.22464 3.72396L4.30596 3.67761C4.47404 3.59916 4.67116 3.60635 4.83501 3.70147C5.02617 3.81245 5.13906 4.02397 5.12641 4.24749C5.11377 4.47101 4.97777 4.66796 4.77536 4.7559C4.00725 5.2129 3.64493 6.00898 3.64493 7.26205V7.48318H14.2174C14.5336 7.48318 14.7899 7.74389 14.7899 8.06549C14.7899 8.38709 14.5336 8.6478 14.2174 8.6478H3.64493V14.154C3.64493 16.2694 4.67391 17.1466 7.18841 17.1613H12.8116C15.2899 17.1613 16.3478 16.2621 16.3478 14.1466V7.25468C16.3478 5.41192 15.5435 4.52003 13.7101 4.30627V4.86647C13.6679 5.16506 13.4109 5.38304 13.1145 5.37166C12.8181 5.36028 12.578 5.12322 12.558 4.82224V2.22764L12.5686 2.13547C12.5922 2.01469 12.653 1.90375 12.7435 1.81952C12.8565 1.71422 13.0063 1.65944 13.1594 1.66744ZM13.4892 13.4975L13.5814 13.5034C13.7397 13.5233 13.888 13.5958 14.0026 13.7112C14.1401 13.8497 14.2174 14.0383 14.2174 14.235C14.2174 14.6421 13.893 14.9721 13.4928 14.9721C13.0925 14.9721 12.7681 14.6421 12.7681 14.235C12.7681 13.828 13.0925 13.4979 13.4928 13.4979L13.4892 13.4975ZM10.0145 13.4979L10.1054 13.5037C10.4627 13.5492 10.7391 13.8593 10.7391 14.235C10.7391 14.6421 10.4147 14.9721 10.0145 14.9721C9.61429 14.9721 9.28986 14.6421 9.28986 14.235C9.28986 13.828 9.61429 13.4979 10.0145 13.4979ZM6.54 13.4975L6.63215 13.5034C6.79038 13.5233 6.93876 13.5958 7.05332 13.7112C7.19079 13.8497 7.26812 14.0383 7.26812 14.235C7.26812 14.6421 6.94368 14.9721 6.54348 14.9721C6.14327 14.9721 5.81884 14.6421 5.81884 14.235C5.81884 13.828 6.14327 13.4979 6.54348 13.4979L6.54 13.4975ZM13.4892 10.5125L13.5814 10.5182C13.7397 10.538 13.888 10.6106 14.0026 10.7259C14.1401 10.8644 14.2174 11.053 14.2174 11.2498C14.2174 11.6569 13.893 11.9869 13.4928 11.9869C13.0925 11.9869 12.7681 11.6569 12.7681 11.2498C12.7681 10.8427 13.0925 10.5127 13.4928 10.5127L13.4892 10.5125ZM10.0145 10.5127L10.1054 10.5184C10.4627 10.5639 10.7391 10.874 10.7391 11.2498C10.7391 11.6569 10.4147 11.9869 10.0145 11.9869C9.61429 11.9869 9.28986 11.6569 9.28986 11.2498C9.28986 10.8427 9.61429 10.5127 10.0145 10.5127ZM6.54 10.5125L6.63215 10.5182C6.79038 10.538 6.93876 10.6106 7.05332 10.7259C7.19079 10.8644 7.26812 11.053 7.26812 11.2498C7.26812 11.6569 6.94368 11.9869 6.54348 11.9869C6.14327 11.9869 5.81884 11.6569 5.81884 11.2498C5.81884 10.8427 6.14327 10.5127 6.54348 10.5127L6.54 10.5125ZM6.86594 1.75538C7.16107 1.75538 7.40908 1.98091 7.44203 2.27923V3.08268H10.7174C11.0336 3.08268 11.2899 3.34339 11.2899 3.66499C11.2899 3.98659 11.0336 4.2473 10.7174 4.2473H7.42754V4.82961C7.42755 4.98533 7.36624 5.13458 7.25731 5.244C7.14838 5.35341 7.0009 5.41389 6.84783 5.41192L6.76412 5.40356C6.49137 5.35562 6.28615 5.11205 6.28981 4.82224V2.27923L6.30599 2.19207C6.37287 1.93806 6.60033 1.75538 6.86594 1.75538Z" fill="#75817C"/>
</svg>
