<svg width="18" height="18" viewBox="0 0 18 18" fill="none" xmlns="http://www.w3.org/2000/svg">
<path fill-rule="evenodd" clip-rule="evenodd" d="M5.31077 2.15852C7.81553 1.96973 10.3313 1.98212 12.8341 2.19556L14.3425 2.32419C15.4818 2.42135 16.4065 3.28602 16.5797 4.41632L16.6749 5.03716C16.9978 7.14391 16.9677 9.28974 16.5856 11.3865C16.397 12.4212 15.4958 13.1731 14.4442 13.1731H6.10559C5.91374 13.1731 5.72489 13.2206 5.5559 13.3114L1.923 15.2638C1.70709 15.3798 1.44607 15.3738 1.23569 15.2481C1.0253 15.1223 0.896484 14.8953 0.896484 14.6501V6.73801C0.896484 4.34264 2.74267 2.35207 5.13127 2.17204L5.31077 2.15852ZM5.30896 6.75408C4.66766 6.75408 4.14778 7.27393 4.14778 7.91527C4.14778 8.55652 4.66766 9.07645 5.30896 9.07645C5.95027 9.07645 6.47014 8.55652 6.47014 7.91527C6.47014 7.27393 5.95027 6.75408 5.30896 6.75408ZM9.02474 6.75408C8.38339 6.75408 7.86356 7.27393 7.86356 7.91527C7.86356 8.55652 8.38339 9.07645 9.02474 9.07645C9.66608 9.07645 10.1859 8.55652 10.1859 7.91527C10.1859 7.27393 9.66608 6.75408 9.02474 6.75408ZM11.5793 7.91527C11.5793 7.27393 12.0992 6.75408 12.7405 6.75408C13.3818 6.75408 13.9017 7.27393 13.9017 7.91527C13.9017 8.55652 13.3818 9.07645 12.7405 9.07645C12.0992 9.07645 11.5793 8.55652 11.5793 7.91527Z" fill="#006553"/>
</svg>
