<svg width="16" height="16" viewBox="0 0 16 16" fill="none" xmlns="http://www.w3.org/2000/svg">
<path d="M1.06647 2.2857H14.9331C15.5219 2.2857 15.9995 1.83028 15.9995 1.14285C15.9995 0.455426 15.5219 0 14.9331 0H1.06647C0.477686 0 0 0.455426 0 1.14285C0 1.83028 0.477686 2.2857 1.06647 2.2857Z" fill="#75817C"/>
<path d="M14.9331 6.85735H1.06647C0.477686 6.85735 0 7.31278 0 8.0002C0 8.68763 0.47793 9.14306 1.06647 9.14306H14.9331C15.5219 9.14306 15.9995 8.68763 15.9995 8.0002C15.9995 7.31278 15.5219 6.85735 14.9331 6.85735Z" fill="#75817C"/>
<path d="M14.9339 13.7143H6.75617C6.16714 13.7143 5.68945 14.17 5.68945 14.8571C5.68945 15.5446 6.16738 16 6.75617 16H14.9339C15.5226 16 16.0003 15.5446 16.0003 14.8571C16.0003 14.17 15.5226 13.7143 14.9339 13.7143Z" fill="#75817C"/>
</svg>
