<svg width="32" height="32" viewBox="0 0 32 32" fill="none" xmlns="http://www.w3.org/2000/svg">
<path fill-rule="evenodd" clip-rule="evenodd" d="M23.7548 1.05895C25.026 -0.352983 27.2407 -0.352983 28.5119 1.05895L31.7262 4.6292C32.1203 5.06691 32.0848 5.74114 31.6469 6.13508C31.209 6.52902 30.5346 6.49352 30.1405 6.0558L27.2 2.78972V11.7403C27.2 12.3292 26.7225 12.8066 26.1333 12.8066C25.5442 12.8066 25.0667 12.3292 25.0667 11.7403V2.78972L22.1262 6.0558C21.7321 6.49352 21.0577 6.52902 20.6198 6.13508C20.1819 5.74108 20.1464 5.06691 20.5405 4.62914L23.7548 1.05895ZM8.53333 2.14359C4.99872 2.14359 2.13333 5.008 2.13333 8.5414V23.4696C2.13333 23.6747 2.14299 23.8776 2.16188 24.0778L4.5808 20.2089C7.26224 15.92 13.3444 15.4825 16.6124 19.3435L19.3689 22.6C21.8069 18.9188 27.4223 18.8712 29.8667 22.692V16.0055C29.8667 15.4166 30.3442 14.9392 30.9333 14.9392C31.5225 14.9392 32 15.4166 32 16.0055V23.4696C32 28.1808 28.1795 32 23.4667 32H8.53333C3.8205 32 0 28.1808 0 23.4696V8.5414C0 3.83018 3.8205 0.0109935 8.53333 0.0109935H17.8667C18.4558 0.0109935 18.9333 0.488392 18.9333 1.07729C18.9333 1.6662 18.4558 2.14359 17.8667 2.14359H8.53333Z" fill="#75817C"/>
</svg>
